<svg xmlns="http://www.w3.org/2000/svg" viewBox="0 0 365.7 269.69"><defs><style>.cls-1{fill:#fff;}</style></defs><g id="Capa_2" data-name="Capa 2"><g id="Capa_1-2" data-name="Capa 1"><path d="M107.3,170.24c-10.62-7.58-13.77-17.85-13-30.24-.88-.62-1.92-1.41-3-2.1A85.85,85.85,0,0,1,84,133.32c-3-2.36-3.12-4.68-.73-7.75l2.44-.47c.72-.14,1.45-.3,2.77-.58-.43-1.08-.55-2.24-1.19-2.85-2.62-2.47-5.4-4.78-8.12-7.14-1.48-1.27-3-2.52-4.66-4,2.69-4.12,6.58-4.9,10.51-5.45,3-.43,6.15-.62,9.5-.94-.46-5.66-.7-10.93,3.38-15V84l-10-3.19c-1.62-4.06-1.15-7.74-.57-11.47A82.14,82.14,0,0,1,104.58,30c11.17-14,25.73-22.49,43-26.91,12.91-3.31,25.92-3.53,39-2.64a113.6,113.6,0,0,1,32.77,7.32c3,1.14,6.33,1.6,9.27,2.9a146.28,146.28,0,0,1,15.73,7.77c6.57,3.9,11.33,9.62,14.88,16.46,4.16,8,8.1,16.05,9.94,24.94.92,4.45,1.1,9-.49,13.32-.83,2.23-2.33,4.22-4,7.11,1.55,6.09-2.5,11.62-5.49,17.25.61,2.5,2.16,2.82,4.06,2.16,1.18-.4,2.24-1.12,3.4-1.56,4.31-1.61,8.56-3.44,13-4.64,4.2-1.14,6.9,1.27,6.64,5.61a36.26,36.26,0,0,1-1.28,7.36,13.83,13.83,0,0,0,1.44,10.47,80.79,80.79,0,0,1,3.73,8.14c.68,1.78.84,3.77-.77,5.24s-3.66,1-5.6.22c-2.16-.9-4.38-1.62-6.46-2.38-1.38,2.68-2.13,5.38-3.86,7.11s-4.3,2.25-6.79,3.45c.65,11.08.69,22.4-8.76,31.53l47.49,1.45v.8c-3.47.23-6.94.59-10.42.68-13.49.34-27,.53-40.48.93a40.77,40.77,0,0,0-8,1.35,56.49,56.49,0,0,0-10.14,3.35c1.26.09,2.52.24,3.78.25,13.87.13,27.74.17,41.61.37,13.24.2,26.48.52,39.73.85a34.86,34.86,0,0,1,8,1.09q-146.91,3.69-293.77,0c31.61-2.32,63.3-1.73,95-2.84-6.78-1.09-12.91-4.43-20-4.51-16-.18-32-.82-47.95-1.29-.85,0-1.69-.18-2.54-.28v-.73ZM119.63,19.59l-.7.81a32.19,32.19,0,0,0-3.32,2.31C104.45,32.57,97.29,45,92.65,59a39,39,0,0,0-1.11,18.7l4.21,1a23.55,23.55,0,0,1-.68-9.93l6,11.48,2.64.13c-.53-2.08-1.12-3.85-1.42-5.65s-.34-3.77-.49-5.66l1.06-.27a22.45,22.45,0,0,0,6.79,13l2.68.33c-1.16-4.65-3.59-8.72-2.47-13.41,1.59,2.79,2.46,6,4.33,8.43s3.65,5.41,7.58,6.54c-.89-3.16-1.55-5.66-2.31-8.14s-2.2-4.9-1-8.26a23.59,23.59,0,0,1,2,3.74c1.42,4.88,5,8.28,8.06,12,.91,1.11,1.8,2.07,3.8,1.08-.39-1.26-.7-2.54-1.18-3.75-1.2-3-2.58-6-3.68-9a28.66,28.66,0,0,1-.91-4.66l-.08.09c3.71,5.44,7.44,10.87,11.11,16.34.84,1.25,1.46,2.72,3.91,1.5-1.18-3.2-2.36-6.43-3.55-9.65l-3.45-9.36.88-.38c4,7.2,7.64,14.63,14,20.26a7.23,7.23,0,0,0-.46-3.84c-2.05-4.55-4.28-9-6.34-13.55-.86-1.9-1.92-3.84-1.19-6.16,4.36,8.59,9,16.87,16.2,23.47-.68-5.23-1.73-10.23-4.25-14.92-1.62-3-2.5-6.43-3.72-9.67l-.07.07c2.47,3.95,4.89,7.93,7.41,11.85,2.62,4.08,5.32,8.1,8,12.13.18.26.57.38,1.27.82a29.57,29.57,0,0,0-2.65-9.81c-2.82-5.81-6.07-11.45-7.38-17.89l-.09.08a8.24,8.24,0,0,1,1.66,1.62c1.84,3.25,3.07,7,5.48,9.74,3.36,3.82,5.63,8.19,8.25,12.41.67,1.08,1.45,2.09,2.18,3.13l.8-.43c-.4-1.52-.77-3.06-1.22-4.57a116.6,116.6,0,0,0-8.23-19.2,37.8,37.8,0,0,1-1.92-5.94l-.08.07a33.07,33.07,0,0,1,3.36,4.18c4.64,8.09,9.15,16.24,13.71,24.37.06.11.07.29.15.34.62.34,1.25.67,1.88,1l.67-.56c-.81-2.95-1.28-6-2.49-8.82-2.94-6.74-6.26-13.31-9.34-20a23.88,23.88,0,0,1-1.09-4.09l1.14-.45q2.78,5.45,5.54,10.88c1.13,2.21,2.1,4.52,3.43,6.61,1.81,2.82,3.92,5.45,5.83,8.21,1.34,2,2.47,4.06,3.91,5.93.59.77,1.76,1.08,2.67,1.6a2.29,2.29,0,0,0,0-2c-4.69-9.51-9.43-19-14.08-28.52a54.1,54.1,0,0,1-2-5.2c8.42,11.36,14.27,24.23,23.9,34.63a2.61,2.61,0,0,0-.11-1.79q-5-10.28-10-20.53c-2-4-4.09-8-6-12.07a14.71,14.71,0,0,1-.64-3.87l-.09,0c4.41,7.25,8.77,14.53,13.22,21.75,3.33,5.39,6.79,10.72,10.16,16l3-.38c-7.1-14.12-13.91-28-20.2-42.13a9,9,0,0,1,2.75,3c2.33,4.13,4.58,8.31,6.85,12.47.78,1.43,1.46,2.9,2.31,4.28q4.13,6.66,8.34,13.26c1.86,2.93,3.76,5.84,5.62,8.72l3-.37c-1.08-4.66-3.46-8.45-5.54-12.42-5.33-10.15-10.4-20.44-15.57-30.67l-.09.07A54.56,54.56,0,0,1,202,44c3.91,6.38,7.38,13,11.48,19.26,3.68,5.63,7.92,10.89,12,16.22.58.76,1.82,1,2.75,1.48l.79-.82c-2.08-4.07-4-8.21-6.27-12.18-5.66-10-11.49-19.85-17.16-29.82a40.54,40.54,0,0,1-2.16-5.36l.86-.44c.87,1.29,1.82,2.54,2.59,3.89,3.72,6.5,7.15,13.17,11.14,19.49,3.65,5.79,7.87,11.23,11.85,16.81,1.79,2.53,3.62,5,5.44,7.55l3.13-.63-16.7-30.94.67-.67a19.12,19.12,0,0,1,2.42,1.6c2.67,2.38,3.68,5.86,5.58,8.72,4.68,7,9.87,13.77,14.87,20.64l2.55-.49c-.28-.81-.5-1.37-.67-1.95-1.91-6.47-6.06-11.69-9.59-17.26a34.24,34.24,0,0,1-1.87-3.91c-1.92-2.93-3.78-5.66-5.5-8.47-.2-.33.34-1.1.54-1.67l-.11.09c.66.28,1.56.37,1.95.86,2.25,2.82,4.4,5.73,6.54,8.63,5.47,7.41,10.92,14.83,16.48,22.39l2.42-.74c-.81-1.55-1.44-2.86-2.16-4.13-3.64-6.39-7.35-12.75-10.9-19.19-.64-1.18-.61-2.72-.89-4.09l-.13.12a10.11,10.11,0,0,1,2.5,1.67c1.28,1.52,2.34,3.22,3.47,4.86,2,2.87,3.73,5.9,5.92,8.59,2.62,3.23,5.58,6.19,8.43,9.23.17.18.7,0,1.69,0a16,16,0,0,0-1.05-3.72c-2.5-4.32-5-8.63-7.78-12.8-6.37-9.71-12.88-19.33-19.29-29-1-1.54-1.81-3.22-2.7-4.84l.88-.56c2.49,3.09,5.16,6.05,7.42,9.3,5.4,7.8,10.51,15.8,16,23.57,1.61,2.31,3.92,4.13,5.9,6.17.14-4.72-1.78-8.36-4.3-11.63-5.86-7.59-11.87-15.08-17.85-22.58-1.54-1.94-3.43-3.71-2.35-6.74C222,10.11,202.13,4.8,181.27,3.25c-3.3,3.63-7.55,4.14-10.46,1.46,2.74.58,5.53,1.53,8.24-1.45-19.79-.38-38.25,2.33-55,13.19,1.25,1.95,1.43,3.87-.4,5.38-1.54,1.28-3.3,2-5.59.94l.88-1c2.75,1.4,3.53-.63,4.24-3l-2.7.84Zm91.51,75.72c.19-.08.38-.16.13-.06.11-.24,0,0-.05.14l-.4.51Zm-71.27,22.6-.2-.19.28.11c.07.33.15.67,0,.17C140.37,118.3,140.12,118.11,139.87,117.91ZM260.58,45.29l.14.05-.23-.14-.61-1.6c-1.32-4.66-6-11.49-9.78-13.68A36.63,36.63,0,0,0,260,43.54C260.17,44.12,260.37,44.71,260.58,45.29Zm-54.69,86-.07.07-2.22-.68c-2.44-1.77-4.63-4.3-8.27-2.7-1.28,1.59-2.6,3.21-3.76,4.64l-3.47.4-.43.72,3.47,2-.59.72c-2.42-.44-4.85-1.23-7.27-1.25s-5,.7-7.78,1.13l1.8-2.21-6,.77.1.09,1.38-2-4.81-1.19c-3.12-3-3.25-3.11-5.21-3l5.49,8.34c4.48,2.5,8.45-.06,12.6-.34a31.29,31.29,0,0,1,4.05.43c2.91.2,5.88,1.06,8.36-.26.92-2.6,1.7-4.78,2.6-7.33a40.71,40.71,0,0,1,4.29,0,26.24,26.24,0,0,1,3.54.9Zm24.28-2.68,3-1.25-.44-.72-2.46,2-1.7-.11,0,.42ZM170,96.14l-.08-.09,1.89,1.85c.91-2.79-.4-3.36-2.71-3.89C169.5,95.07,169.73,95.6,170,96.14Zm65.79-2.45c.51,1,1,1.91,1.82,3.36l1.71-4-3.43.73,0,.19Zm-13.91-1.84-.09-.1c2.59,1.57,2-1.1,3.16-2.08l-3.11-1.31C221.58,89.71,219.87,90.71,221.84,91.85Zm35.78.45L249.41,94c-.08.89-.15,1.74-.28,3.19l2-1.3-.1.07c2.81-.07,5.15-1,6.62-3.58l.3-.59Zm-110.21,9.77,13.31-4.72-.15-.95-5.5.51a12.59,12.59,0,0,0-3.17,1.71c-1.36,1.36-4,1.09-4.43,3.53-1.62-.07-3.45-.7-4,2Zm-38.26-3.78,2.88,1.79V95.79l-2.18-.44-7.35-7.92C102.21,91.86,104.39,95.55,109.15,98.29ZM248.75,138c.21-.8.42-1.61.71-2.68l-2.67-1.42-.73.72c.85,1.16,1.69,2.33,2.54,3.5a3.53,3.53,0,0,0,.28,1.05q5.46,8.67,11,17.31a10.19,10.19,0,0,0,1.61,1.39,19.76,19.76,0,0,0-1-3.86c-2.76-5.12-5.62-10.18-8.54-15.42ZM90.36,131.54l11.82-.26.08-1-9.7-2.61-8.78.94c1.94,4.32,5.84,5.07,9.25,6.37,1,.37,2.58,1.5,3.23-.59l-6-2.9Zm114.32-17.13L202,110.82l-3.09-.93c-1.06-1.17.68-4.08-2.63-3.44-.23,3.58,3.95,4.4,4.42,7.48l-1.38,2.16c2.53.94,4.06-.17,5.42-1.76-.34,2.17-.59,4.39-2.65,5.74l-9.27-4.48,2.8-1.82c-.56-3.37-3.79-2.55-5.7-4l.53-2.54-3.4.23,4.64,5.89-2.12,3.05-5.07-2.7,2.88-1.6-6.07-3c.16-.44.38-1.06.77-2.11l-3.84.67,4.39,5.83L173.84,111c.12,1.44.21,2.53.31,3.78,4.57,3,7.22,8.71,13.9,8.45l-6.27-3.66.31-1.21c2.83,1.72,5.33-2.5,8.41.23v2.83l3.81,2.61,4.35-1.82c3,1.7,4.17,5,8.12,5.34-1.93-2-3.44-3.59-4.94-5.17l.74-1,8.68,4.89.81-2.39c-4.95-3.67-4.95-3.67-5.71-6a8.37,8.37,0,0,1,2,.69c2.68,2,5.3,4,7.95,6.06h.18l-.26.1a9.87,9.87,0,0,0-.3-2.46c-.58-1.51,0-2.49,1.09-3.67l3.35,4.21.6-.41-1.3-3.75c-2.27-.54-4.53-1.06-6.79-1.63C210.09,116.34,206.92,116.83,204.68,114.41Zm-95.49-.29-.07-.06.51,1.27c-4.66-2-9.09,0-13.89,0l-5.59-3.75.24-.65,6.82,1.4c-.69-1.91-1.24-3.4-1.81-5-5.6-.17-11-.75-16.07,2.27,5.26,1,9.36,4.07,13.62,6.82a6.41,6.41,0,0,0,6.41.74c4-1.8,7.53-.7,10.65,2.15a22.05,22.05,0,0,0,2.6,2.14c2.48,1.64,4,1.33,6.43-1.22l-3.71-.49-.07-.67,56.81-16.71-4.36-1.78-1.49,1.3-4.54-.68-.43,2-3.13-.6L150.85,106l-.07-.3-5.42,1.67c-1.14-.77-2.47.14-3.11,1.27a23.46,23.46,0,0,0-4.09.67c-2.32.89-4.52,2.12-6.86,3-3.11,1.13-6.3,2-9.46,3l0,.1q10.08-5.57,20.18-11.11l-.4-.82-7.64,3c-5.61,1.38-10.07,5.54-15.47,7.4l-.56-.79,8.91-6.62-.45-.64c-2,1-3.91,2-6,2.8-3.46,1.27-4.61,1.23-6,.24L118.2,106c-3.16-.53-5.76,1.83-8.73.46l2.2-2.71c-2,.11-3.31.1-4.54.26-1.43.18-2.84.49-4.27.75l.08.09,3.3-2.55-.4-.69-4.6.42,1.66-2.78-2-.37-1-4-1,.21c-1.21,6,.46,11.59,2.7,16.62Zm153.74,9.74,1.82-.64v1.94l4.4,1.26V127l-8,.87-.26.62,4.12,2.62-4.6.24c-2-3.43-3.92-6.75-5.63-9.69l.53-4.82-.95-.2-1.19,3.15c-3.52-.1-4,.14-7,3.21-4.65,4.82-7.31,4.6-10.75-.89,1.48-3.27,1.41-3.68-1-5.4-.2,1.13-.38,2.18-.58,3.3l-5.54-2.7-3.32,3c-1.23-1.48-.37-4.26-3.4-3.88.79,2,1.53,3.82,2.32,5.78l-2,5-9,3.75.66,1.29H212.1l.09.51,1.29-.61,5-.74-2.32,3.08a6.61,6.61,0,0,0,5.87-3.61c1.34-2.23,2.57-4.53,3.84-6.81,2.25-4.07,4.53-4.41,7.95-1.16.73.69,1.37,1.46,2.1,2.14,2,1.83,4,3.62,6,5.51a39.72,39.72,0,0,1,9.93-8.47c4.43,3.07,3.66,8.91,7.45,12.46a18.62,18.62,0,0,0,11.21-2.16c2.78-1.56,3.82-4.31,3.85-7.46l-6.31-.86v-.94L279.3,121l0,.71,5.07,3.06-.36,2,3,1.82.66-.68c-.88-4.41-2.1-8.6-7.33-10.34l2.39-1.27-3.46-5.14,1.28-.78c.39-2,.74-3.81,1.1-5.62l-1.11-1.33,3.47-3.2c-.22-1.33-.46-2.82-.8-4.86-7.79,1.25-13.21,6.86-20.9,8.14l1.82,3.34,1,.3c.47-1,.94-2,1.57-3.38.68,1.52,1,2.18,1.49,3.29l3.33-2.1v.57l4.51-.32c-2.73,3.33-7.8,3.12-9.79,7l.51.8,3.29-1.84,5.71,1.12c-3,2.5-8.34.94-10.45,5.72H275.4a52.18,52.18,0,0,1-9.28,3.11c-1.46.41-3.35.55-3.12,2.88l-.18,0ZM143,174.73a2.83,2.83,0,0,0,.1.3,2.08,2.08,0,0,1-.18-.22c-1.12-2.89-2.35-5.74-3.3-8.68-.61-1.9-1.32-3.91-.22-6.13,1.38,7.56,7.35,11.67,11.94,17.33,1.35-5.9-4-9.71-3.28-15,3,6.66,8,11.43,13.69,15.49l.73-.37q-2.89-7.47-5.8-14.93l.87-.48c1.73,2.65,3.37,5.37,5.23,7.92s3.7,5.42,7.79,7.12l-4.48-12.64-.1.08a14.54,14.54,0,0,1,2.76,2.12c2.43,3,4.68,6.14,7.1,9.15a19.93,19.93,0,0,0,2.67,2.32l.94-.74-5.64-14.73a38.26,38.26,0,0,1,9.5,12.51c.68,1.52,1.53,2.77,4.16,2.59l-8.77-20.3.72-.39a27.78,27.78,0,0,1,2.37,2.75c2.54,3.86,4.94,7.8,7.5,11.64a54.29,54.29,0,0,0,4.32,5.58c.46.52,1.48.53,2.72.93-4.3-9.74-8.14-18.79-12.32-27.68-1.17-2.5-2.77-5.15-6-5.49-.24-1-.44-1.87-.71-3l-2.51,1.08,1,4.63-.76.31-3.78-4.46c-5.26.32-7.08-3.52-8.9-7.37H160c.49,2,.91,3.7,1.52,6.17-4.71-6.48-4.71-6.48-7.77-5.75.4,1.52.8,3.05,1.21,4.58l-.45.21L150.59,136H146.8c.25,1.56.47,2.91.79,5l-4.85-5.18-3.31.3c-.11,1-.19,1.77-.35,3.23l-2.9-3.55c-5.84,0-11.58.08-17.32,0-4-.07-8-.48-12-.53-5.7-.08-8.66,2.54-9.12,8.16a36.19,36.19,0,0,0,.15,8.58,14.25,14.25,0,0,0,5.27,9.51l-.12-.12c1.15,2.58,3.3,4,5.92,5.47-2.26-8.27-2.26-8.4-.62-12.18.34.94.54,1.61.82,2.23,1.75,4,3.44,8,5.36,11.86.47,1,1.72,1.52,2.62,2.27-2.55-10.33-2.55-10.33-1.18-13.68.75,1.93,1.32,3.51,2,5.05,1.5,3.56,3.29,6.9,7,8.64,0,.14.09.28.08.26l-.16-.19c-.39-2.32-.87-4.63-1.11-7a22.58,22.58,0,0,1,.22-3.92c2.07,4.55,7.65,13.24,10.27,14.81-1.38-4.65-4.19-8.76-2.81-13.57,1.25,1.93,2.05,4,3.19,5.92C136.67,170.65,139.2,173.43,143,174.73Zm74.88-78.92a13.8,13.8,0,0,0-1.5,1.29c-.18.22-.12.63-.18,1,9.77,3.7,19.47,7.36,27.88,13.52l-.39.84L221.6,104l-2.28.27c-1.36-3.71-5.45-1.21-7.07-3.86L208,102.69c2.68.65,4.72,1.17,6.77,1.63a93.09,93.09,0,0,1,24,9.28c2.92,1.59,5.83,3.37,9.2,3.48,3.07-2.48,5.46-9.12,6.18-17L249,101.33l-.16.74,1.76.4-.63.61-4.73.37.11-.3L239,101.32l-.35.81,11.72,7.08-1.45,1.23c-4.59-4.27-10.34-5.71-15.88-7.63l-5.51-2.36c-.58-1.44-2.17-1.67-4.09-.73-.72-2.8-2.76-2.19-4.52-2.07Zm2.4,80.68,1.16-.94c-.83-2.55-1.49-5.18-2.55-7.63-1.63-3.75-3.51-7.4-5.34-11.07a100.34,100.34,0,0,0-4.67-8.9c-.9-1.43-2.54-2.38-4-3.73l.4-1.38-5-4.25c.67,3.87,1.4,7.71,3.06,11.09,2.79,5.69,6.12,11.11,9.31,16.59,1.69,2.91,3.5,5.75,5.4,8.53A8.84,8.84,0,0,0,220.28,176.49Zm-79.78-43.4.32-1.18c-7.58-.39-8.12-7.35-11.17-11.79-.94,0-1.67-.22-2.16,0-4,2.12-8.06,4.32-12.11,6.51l.21,2.9c-4.47-3.81-7.39-8.47-12.07-11.37l-4,2.91,1.05-.62,9,10.71.63-.53-5.41-6,.45-.44,11.7,7.46,3.2-4.54.86,4.25.89.14,2.12-6.7.69-.06,2.43,7.21c2.45-2.77,0-6.07,1.81-9.16l3.68,8.87ZM186,141.92l-3.08-.67c.49,7.92,15.9,33.61,21.31,35.65a3.27,3.27,0,0,0-.09-1.07c-3.21-7.54-6.32-15.13-9.73-22.58-1.12-2.45-2.93-4.65-6-5.06-.2,0-.37-.3-.5-.42l.11-2.2-3.11-1.31Zm43.56,32.41c-1.48-9.36-9.92-24.28-15.66-27.83.07-1.17.13-2.29.19-3.33l-3.57-1.35,1-2.3-5.42-2.34c3.16,5.84,6.27,11,8.87,16.48C218.66,161.35,223,168.52,229.54,174.33Zm-.06-29.94.94-2.22-4-3.61c.09-2.15.09-2.15-2.29-2.31,2.47,10.72,16,32.74,21.32,34.62-1-6.76-7.28-18.73-11.83-22.49C233.68,146,232.18,144.74,229.48,144.39Zm-15.95,32.68.79-.78a6.56,6.56,0,0,0-.36-1.37c-3.77-7.16-7.52-14.33-11.36-21.45-2.17-4-5-7.51-9.11-9.69-.53-1.54-.53-1.54-2.29-1.39.77,1.51,1.44,3,2.23,4.37,2.27,4,4.48,8.06,6.93,12,3.43,5.48,7,10.88,10.62,16.25A11.73,11.73,0,0,0,213.53,177.07Zm3.12-37.84c3.28,13.31,14,22.24,19.66,34.05a5.06,5.06,0,0,0,1.22.1,5.21,5.21,0,0,0,1.17-.54c-5.62-9.07-7.94-20-16.45-27.29.82-2.49-1.41-2.94-2.82-3.82C219.08,139.14,219.08,139.14,216.65,139.23Zm14.79-2.49c1.7,2.64,3.36,5,4.77,7.44,3.75,6.6,7.31,13.31,11.11,19.88a30.63,30.63,0,0,0,3.85,4.48l.67-.51a20.58,20.58,0,0,0-.52-2.09c-2.43-6.7-5.07-13.31-9.22-19.17a61,61,0,0,0-4.16-4.76c.82-2.84-1.85-3-3.82-3.72-.1-.65-.19-1.2-.31-1.92ZM256.59,165c2.23-.83,1.71-2.29,1.35-3.78-1.89-7.77-7-13.61-11.22-19.64l-3.13-.57v-2.28l-3.35-2c1.87,7.43,5.75,13.14,10,18.43a33.46,33.46,0,0,1,5,7.3C255.67,163.26,256.15,164.09,256.59,165Zm-61-72.7c-3.05.27-5.45.55-7.86.68a10.58,10.58,0,0,1-3.32-.3c-2.86-.79-5.68-1.77-8.54-2.59a30.66,30.66,0,0,0-3.45-.58,2.48,2.48,0,0,0,1.36,1.65,43.76,43.76,0,0,0,24.7,4.11A22.27,22.27,0,0,0,212,88.68a10.59,10.59,0,0,0,1.19-1.8c-4.24,2.73-8.24,5.3-14,4.66l2.12-2C198.26,88.5,198.26,88.5,195.56,92.26Zm32-6.6c8.5,3.59,17.24,5.27,26.37,3a13.16,13.16,0,0,0,4.56-2.43c1.35-1,2.44-2.45,2-4.39-1.74,1.17-3.26,2.59-5.05,3.27s-3.78.53-5.9.77l2.08,1.09C243.2,89.28,235.44,86.78,227.59,85.66Zm-119.67.55c2.07,7.65,17.87,10.26,30.56,4.87-5.41,0-10.44,2-15.91,1l1-2.49c-1.58-1-2.92-1.94-4.42-.09a7.89,7.89,0,0,1,.91.76,12.23,12.23,0,0,1,.75,1.11C116.64,91.42,116.64,91.42,107.92,86.21Zm52.38,33,9.7,8.31.69-.69-7.45-8.42c2.5-.72,3.58.8,4.7,2.36s1.84,3.14,4.19,3.39c-1.9-4.07-2.82-5-5.51-7.16a6.54,6.54,0,0,1-1.8-3c-.47-1.5-1-2.7-3.3-2.8l1.61,4.27ZM132.05,98H117.36l.32,3.47h14Zm32.1,28.39c-.31-3.25-3.67-3.33-5.24-5.15s-2.38-4.56-5.9-5.26l3.34,5.55h-3.54L151,118.64c-.29,3.58,2.15,4.81,4.82,6l1.72-1.43C160.32,123.34,160.8,127.41,164.15,126.36Zm6.64-9.29c2.06,3.16,4.11,6.72,9.93,5.68-3.77-3.25-7-6.11-10.3-8.8-.63-.5-1.76-.38-2.66-.54l-.42,1.08C168.44,115.3,169.53,116.12,170.79,117.07Zm3-19.19c1.21.51,2,.82,2.8,1.17a8.74,8.74,0,0,0,1.94.91c3.68.56,7.37,1.08,11.08,1.49.65.07,1.37-.44,2.76-.93l-18.58-4.13ZM146.69,125l.64-1,5.86,3,.39-.61L148,121c-2.14,2.66-4.57.31-7.11,1.11,3.21,1.63,4.55,5.33,8.34,6.23Zm111.65-19c-.51,5.63-1,10.72-1.49,16.41l2.76-1.78-.68-.39,2-9.46C260.28,109.51,259.46,108,258.34,105.94Zm4.29,44.51c-.5-6.18-4.9-12.53-9.13-13.25C256.53,141.58,259.35,145.68,262.63,150.45ZM248.54,27l-6.35-5.35C242.38,25.63,243.64,26.78,248.54,27ZM143.62,129.26l.69-.73c-1.66-1.85-3.33-3.7-5-5.56l-.64.59C139.37,126.29,141.52,127.75,143.62,129.26Zm-3.1-30.42V95.25l-3,1,.28,3.53Zm67,15.22c1.13-4.21.66-5.27-2.53-6ZM136.07,100.3c-.08-1.36-.13-2.29-.19-3.48l-2.69.61.24,3.16Zm107.11-3.18L244.27,94h-3.55c-.11,1-.19,1.8-.3,2.8Zm-14,34.2.1.72c2.3-.16,4.74.77,6.86-.79l-.14-.95Zm-17.09-19.84,1.81-1.64-2.69-1.18c0,4.93.46,5.79,3.1,5.43ZM92.68,126l5.35.86C95.61,123.6,95,123.48,92.68,126Zm52.17-31.89-1.09-.48a10,10,0,0,0-1.09,2.36,5.35,5.35,0,0,0,.51,2l1.67-.66Zm80.91-.42,2.43.63c.37-1,.7-2,1.11-3.2l-2.69-.37C226.33,91.67,226.1,92.48,225.76,93.64ZM180.61,126.2l4.18,1.47.45-.91-2.75-2.21Zm67.87-32-3-.18-.23,3,.94.38Zm-26.81,19.41.61-.79c-.83-1.14-1.23-2.85-3.8-1.73ZM197.21,100.9l-.07-1.11-4.59.23.07.88Zm-19,28.6c-2-2.88-2.36-2.93-3.86-.67Zm61.61-6.83.95.63,1.76-2.78C240.22,120.15,240.05,121.42,239.87,122.67ZM115.41,97l-1.22.12.4,3.33,1-.09Zm32.31-2,1.12,0c-.15-1.11-.31-2.22-.46-3.33l-.95.13C147.53,92.9,147.63,94,147.72,95.06Zm83.24.3c2.14-.18,1.79-1.74,2.39-2.93l-1.59-.34ZM165.4,91.14l.15,2.52,2.62-.68Zm62.71,35.42,3.18-1.93L229,123.5C228.73,124.4,228.55,125,228.11,126.56Zm-28.84-27,.27.94a6.92,6.92,0,0,0,1.66-.22,8.06,8.06,0,0,0,1.47-.9l-.25-.53Zm-40.55,16.33c.61-1.67.34-2.65-1.9-2.42Zm28.47-26.69-.16-.65-2.7.48.24,1Zm-61.09-.57,0,.86,2.56.12,0-.86Zm20,30.44-1.28-1.32-1.38,1.9.81.9Zm5.27-26.6.78-.08L152,90.2l-.89.1ZM137.9,121.44l.84-.36-.89-2.19-.91.38Zm52-31.57.38.81,2.08-.79-.21-.65Zm17.61,8-.41-.69-1.77.85.27.61Zm-39.65,13.24.81-.72-1.75-1.63-.52.53C166.9,109.87,167.39,110.47,167.87,111.08Zm84,19.74.14-.5-1.51-.3-.07.28Zm-92,.35v-.5h-2.66v.5Zm36.87-42.39-.87-.88-1.07.92,1,1Zm-80.45-.71.12-.69-1.76-.21-.08.5ZM240.35,84.6l0-.42-2.1.14v.28Zm-12.3,29.53-.16.49,1.66.61.21-.64ZM261.9,139l-.65.16.37,1.37.59-.14ZM93.22,122.4l.35-.67-1.31-.67-.28.47ZM151.57,114l.19-.57-1.22-.45-.22.64Zm20.79-5.36.4-.14-.24-.92-.51.17Zm79,18.74-.06-.69-1,.37.08.32Zm-5.18-43.5-.06-.49-1.24.17,0,.47ZM162.82,91.4c.05.54,0,.27,0,0ZM143,116.1l-.08-.36-.7.19a.9.9,0,0,0,.07.27C142.56,116.18,142.8,116.14,143,116.1Zm92.47-20.26.14-.21-.21,0Zm-68-.89-.2-.24c-.07.07-.21.13-.21.21s.11.16.18.24Z"/><path d="M304.28,257.77v-8.34h5.92a30,30,0,0,0,.71-4.41q.07-17.61,0-35.22a32.91,32.91,0,0,0-.58-4.33l-5.88-1v-8.22c1-.07,2.05-.21,3.13-.21q15.92.14,31.84.31a43.61,43.61,0,0,1,5.24.32c7.17,1,11.68,4.91,13,12a30.46,30.46,0,0,1,.2,9.67,11.91,11.91,0,0,1-9,10.31c2,2,4.39,3.53,5.5,5.72s1.37,5.27,1.62,8c.35,3.85.35,7.73.55,11.59.13,2.31.18,2.31,2.19,3.85,1.72-.95,1.63-2.65,1.7-4.24s0-3.21,0-5.19l5,.93c.56,5.1.4,10.15-1.55,15-1.48,3.67-4.39,5.26-8.36,4.9-8.9-.79-14.5-6.12-15.39-15-.42-4.22-.31-8.48-.51-12.72-.32-6.94-1.84-8.47-8.75-8.89-.74,0-1.49,0-2.85,0v4.73c0,3.5,0,7,0,10.49.07,4.31.58,4.89,4.72,5.79.6.13,1.2.22,2,.38v9.23Zm42.15-52.46-.17,0,.25,0c.07.54,0,1.22.26,1.61,2.92,3.87,3,8,1.24,12.31a12.78,12.78,0,0,0-.39,1.93C352.86,215.37,352.26,209.61,346.43,205.31Zm3.22,52.29.16,0-.25,0c-.16-3.8-.3-7.61-.52-11.41a29,29,0,0,0-.65-5.91c-.38-1.38-1.49-2.57-2.27-3.84l-.41-.31.49.24c.21,4.2.49,8.4.61,12.61A14.08,14.08,0,0,0,349.65,257.6Zm-21.6-34.24c2.17.13,4.13.37,6.09.36,4.21,0,6.15-1.63,6.75-5.45,1-6.1-.75-10.8-4.64-11.72-2.59-.61-5.34-.53-8.2-.77ZM318.6,205a275.86,275.86,0,0,0,0,43.5C320.64,244.35,320.68,209.52,318.6,205Z"/><path d="M40.34,226.75c2.11.78,3.67,1.24,5.13,1.91a11.85,11.85,0,0,1,7.24,9.78c1.13,10.12-1.91,17.45-11.46,21.11-5.66,2.17-11.69,3.44-17.61,4.86C15.9,266.28,8.1,267.89,0,269.69v-9.94l5.82-2a35.49,35.49,0,0,0,.64-4.66q.08-20.6,0-41.19a42,42,0,0,0-.53-4.67L0,206.39v-9.61c1-.1,1.92-.27,2.87-.28,9.24-.09,18.48-.18,27.71-.21a54.13,54.13,0,0,1,6.73.39C48,198,53.14,206.89,49.23,217a17.1,17.1,0,0,1-5.89,7.57C42.47,225.19,41.6,225.82,40.34,226.75Zm-.12-7.63c5-5,4.34-11.92-1.47-15.09l-.27,0,.35-.07c0,.23-.22.55-.13.67a12.42,12.42,0,0,1,1.5,13.55c-.12.29.06.71.1,1.07l-.33.06Zm1.55,30c5.34-5.52,4.41-13.11-2.06-15.31,3.71,4.14,4.36,8.65,2.3,13.61a5.77,5.77,0,0,0-.15,1.78l-.27,0Zm-18.08,5.73c2-.37,3.44-.57,4.87-.94,3-.76,5.48-2.47,6.08-5.48a32,32,0,0,0,.52-9.95c-.52-4.19-3.15-5.93-7.38-5.75a37.42,37.42,0,0,0-4.09.6Zm.06-48.6v17.92c3.83,0,7.43-.27,9.23-3.91,1.91-3.86,2.12-8.1-.17-11.83C30.77,205.14,27.23,205.89,23.75,206.26Zm-9.46,50.93c1.92-5,1.85-47.47.15-51.51C13.06,211.48,12.9,246.53,14.29,257.19Z"/><path d="M162,220.27c1.2.45,2.13.78,3,1.15a6,6,0,0,1,4,5c.38,3.34.57,6.7.8,10.06.15,2.35.12,2.36,2,4.07,2.91-1.45,1.64-4.36,2.38-6.87h4.18c2.64,8.22-2,15.16-10.59,15.55a32.87,32.87,0,0,1-5.61-.19c-5.47-.72-8.47-3.9-8.85-9.43-.19-2.87,0-5.76-.19-8.62-.35-4.95-1.55-6-6.55-6.09-1.6,0-3.2,0-4.92,0v15.91l6.68,1v6.78l-30.62,1.94v-7.2l6.24-1.53V204.11L117.87,203v-6.95c1-.07,1.95-.21,2.91-.21,11.12,0,22.24-.13,33.36,0a35.49,35.49,0,0,1,9.55,1.48c5.38,1.62,7.9,5.31,8.12,10.85.19,4.88-2.22,8.57-7.11,10.86C163.92,219.47,163.12,219.79,162,220.27Zm-2.58-17c-.13-.18-.26-.35.12.17l-.18-.1c2.15,4.08,3,8.22.57,12.5l.09.16-.16-.24c3.25-.63,3.06-3.43,3.27-5.68C163.4,207.2,162.73,204.46,159.43,203.31Zm3.39,37.15.19-.13-.25.08c.16-4.93.43-9.87-2.08-14.38-.2,2.38.09,4.71.07,7A12.16,12.16,0,0,0,162.82,240.46ZM141.36,218c3.5-.39,6.5-.43,9.34-1.13s4.09-3.16,3.89-6.8-1.33-5.5-4.38-6a80.51,80.51,0,0,0-8.54-.67c-.15,1.15-.29,1.74-.3,2.33C141.35,209.52,141.36,213.36,141.36,218Zm-9.2,20.8c2-5.66,1.64-30.65-.3-33.63A159.35,159.35,0,0,0,132.16,238.8Z"/><path d="M282.15,237.92l-5.71-.82c-2.25-9.86-2.51-10.15-8.61-9.58V245c5.19.36,10.26.85,15.33,1,2.7.08,4.42-1.82,5.1-4.26.94-3.33,1.53-6.76,2.36-10.59l7.71.73v24.75l-53.9-6.22v-7.13l5.59-.39a20.37,20.37,0,0,0,.84-4c.07-10.25,0-20.5,0-30.75a28.24,28.24,0,0,0-.59-3.86l-5.87-1.13v-7h53.74c.09,7.31.08,14.58,0,22.1h-7.73c-.66-2.34-1.24-4.6-2-6.82-1.43-4.38-4.46-6.91-9.08-7.13-3.73-.19-7.47,0-11.5,0v15.09c5.89,1.14,6.64.42,8.63-8.16h5.67Zm-22.41-32.5-1.2.06c-.14,6.18-.43,12.36-.37,18.53s-.37,12.26,1.22,18.26A181.56,181.56,0,0,0,259.74,205.42Z"/><path d="M240,221.79v6.76l-5.28.76c-1.28,7-.08,13.83-.8,20.9l-8.9-.47-2.15-3.14A30.77,30.77,0,0,1,207.29,250c-14.62-.65-24.17-9.79-25.25-24.42-.58-7.77.39-15.23,5.38-21.65a24.49,24.49,0,0,1,17.94-9.61c5.93-.51,11.73-.06,17.08,3.33l1.85-2.47h7.89v21.52h-8.6c-.92-2.83-1.66-5.71-2.79-8.42-1.57-3.74-4.42-6-8.64-6.12a8,8,0,0,0-7.91,4.62,8.31,8.31,0,0,0-.61,1.37,49.21,49.21,0,0,0,.11,27.69c1.71,5.62,7,7.75,12.29,5.63.22-.08.39-.3.88-.71,1.28-3.71,1.12-7.71.12-12l-5-1.13v-6.45C215,220.35,234.21,220.73,240,221.79Zm-41.34-18.23-1,.49c-.89,1-2.16,1.83-2.61,3-1.47,3.81-3.2,7.64-3.82,11.62a25.19,25.19,0,0,0,5.19,20.4c.93,1.14,1.71,2.93,3.81,2.3-.06.19-.11.37-.07.22l0-.14c-8.48-10.93-9.51-22.55-3.27-34.86a25.57,25.57,0,0,0,.94-2.38l.77-.72c0-.15.08-.3.07-.28ZM226,240.34c1.75-4.67,1.55-12.14-.17-14.6A24.11,24.11,0,0,0,226,240.34Z"/><path d="M98,204.29l-5.89-.52v-7.62h23.32v7l-5.84,1.1c-.18,1.67-.48,3.22-.49,4.78,0,8.12,0,16.24,0,24.36,0,10.82-4.43,16.93-14.7,20.4A42.19,42.19,0,0,1,78.85,256c-9.75-.43-15.2-5.91-15.33-15.67-.13-10,0-20-.06-30,0-1.67-.33-3.35-.54-5.26l-6-.48v-8.33H87.24v7.37l-6.32,1.24c-.16,1.77-.38,3.11-.38,4.45,0,8.86-.07,17.73,0,26.6a21.54,21.54,0,0,0,1,6.61A6.44,6.44,0,0,0,84.57,246c5,2.29,12.12-1.32,13.38-6.66a25.29,25.29,0,0,0,.64-5.56q.09-12.18,0-24.35A44.48,44.48,0,0,0,98,204.29Zm-26,.08c-1.57,8.9-1.49,30.5,0,36.58C73.66,236.2,73.76,210.87,72,204.37Zm31.32,31.27c1.89-4.44,1.84-26.66,0-30.59Z"/><path class="cls-1" d="M156.26,58c1.31,6.44,4.56,12.08,7.38,17.89a29.57,29.57,0,0,1,2.65,9.81c-.7-.44-1.09-.56-1.27-.82-2.69-4-5.39-8-8-12.13-2.52-3.92-4.94-7.9-7.41-11.85,0-.33-.09-.66,0-.17l.09.1c1.22,3.24,2.1,6.65,3.72,9.67,2.52,4.69,3.57,9.69,4.25,14.92-7.18-6.6-11.84-14.88-16.2-23.47-.73,2.32.33,4.26,1.19,6.16,2.06,4.54,4.29,9,6.34,13.55a7.23,7.23,0,0,1,.46,3.84c-6.38-5.63-10-13.06-14-20.26l-.88.38L138,75c1.19,3.22,2.37,6.45,3.55,9.65-2.45,1.22-3.07-.25-3.91-1.5-3.67-5.47-7.4-10.9-11.11-16.34l-.2-.05.28,0a28.66,28.66,0,0,0,.91,4.66c1.1,3,2.48,6,3.68,9,.48,1.21.79,2.49,1.18,3.75-2,1-2.89,0-3.8-1.08-3.09-3.73-6.64-7.13-8.06-12a23.59,23.59,0,0,0-2-3.74c-1.23,3.36.21,5.76,1,8.26s1.42,5,2.31,8.14c-3.93-1.13-5.72-4.12-7.58-6.54s-2.74-5.64-4.33-8.43c-1.12,4.69,1.31,8.76,2.47,13.41l-2.68-.33a22.45,22.45,0,0,1-6.79-13l-1.06.27c.15,1.89.18,3.79.49,5.66s.89,3.57,1.42,5.65l-2.64-.13-6-11.48a23.55,23.55,0,0,0,.68,9.93l-4.21-1A39,39,0,0,1,92.65,59c4.64-14,11.8-26.41,23-36.27a32.19,32.19,0,0,1,3.32-2.31l-.08-.1v1.62l.06-.12-.88,1c2.29,1.1,4,.34,5.59-.94,1.83-1.51,1.65-3.43.4-5.38,16.78-10.86,35.24-13.57,55-13.19-2.71,3-5.5,2-8.24,1.45,2.91,2.68,7.16,2.17,10.46-1.46C202.13,4.8,222,10.11,240.76,20.56c-1.08,3,.81,4.8,2.35,6.74,6,7.5,12,15,17.85,22.58,2.52,3.27,4.44,6.91,4.3,11.63-2-2-4.29-3.86-5.9-6.17-5.44-7.77-10.55-15.77-16-23.57-2.26-3.25-4.93-6.21-7.42-9.3l-.88.56c.89,1.62,1.68,3.3,2.7,4.84,6.41,9.68,12.92,19.3,19.29,29,2.74,4.17,5.28,8.48,7.78,12.8a16,16,0,0,1,1.05,3.72c-1,0-1.52.16-1.69,0-2.85-3-5.81-6-8.43-9.23-2.19-2.69-3.95-5.72-5.92-8.59-1.13-1.64-2.19-3.34-3.47-4.86a10.11,10.11,0,0,0-2.5-1.67l.8-1.9-4.1-6.06-1.69,1.36a36.1,36.1,0,0,0,2.44,4.32,13.63,13.63,0,0,0,2.68,2.16c.28,1.37.25,2.91.89,4.09,3.55,6.44,7.26,12.8,10.9,19.19.72,1.27,1.35,2.58,2.16,4.13l-2.42.74c-5.56-7.56-11-15-16.48-22.39-2.14-2.9-4.29-5.81-6.54-8.63-.39-.49-1.29-.58-1.95-.86-.33-1.35-.37-2.86-1-4-2-3.5-4.17-6.87-6.28-10.3l-.08,0,8.18,4.12c-.2-1-.43-2-.65-3.09l.75-.4c3.38,2.05,3.76,6.63,6.74,9.12,1.09-1.81,1.16-1.85.25-3.2-2-3-4.11-6-6.24-8.9-1.19-1.65-2.53-3.19-4-5,2.42-.45,4.37-.75,4.41-4l-3.27-3L229,17H223.9l-3.78-2.62-.44.63,3.12,5.23c2.16,1.4,4.91,2.57,5.74,5.7L227,27.07l2.7,1.7-.61.89a32.07,32.07,0,0,1-4.71-.73c-.75-.22-1.3-1.15-1.94-1.75l.13-.27,0,.36L221,28.33l-3.32-3.09a15.73,15.73,0,0,0,.93,2.73c3.06,5,6.12,10,9.32,14.88.62.95,1.86,1.51,2.81,2.24-.2.57-.74,1.34-.54,1.67,1.72,2.81,3.58,5.54,5.5,8.47a34.24,34.24,0,0,0,1.87,3.91c3.53,5.57,7.68,10.79,9.59,17.26.17.58.39,1.14.67,1.95l-2.55.49c-5-6.87-10.19-13.59-14.87-20.64-1.9-2.86-2.91-6.34-5.58-8.72a19.12,19.12,0,0,0-2.42-1.6l-.67.67,16.7,30.94-3.13.63c-1.82-2.52-3.65-5-5.44-7.55-4-5.58-8.2-11-11.85-16.81-4-6.32-7.42-13-11.14-19.49-.77-1.35-1.72-2.6-2.59-3.89l-.86.44a40.54,40.54,0,0,0,2.16,5.36c5.67,10,11.5,19.84,17.16,29.82,2.25,4,4.19,8.11,6.27,12.18l-.79.82c-.93-.48-2.17-.72-2.75-1.48-4.11-5.33-8.35-10.59-12-16.22C209.33,57.06,205.86,50.42,202,44a54.56,54.56,0,0,0-4.46-5.56v-.2c-.27-.35-.09-.11.09.13,5.17,10.23,10.24,20.52,15.57,30.67,2.08,4,4.46,7.76,5.54,12.42l-3,.37C213.8,79,211.9,76.08,210,73.15q-4.2-6.62-8.34-13.26c-.85-1.38-1.53-2.85-2.31-4.28-2.27-4.16-4.52-8.34-6.85-12.47a9,9,0,0,0-2.75-3c6.29,14.15,13.1,28,20.2,42.13l-3,.38c-3.37-5.3-6.83-10.63-10.16-16-4.45-7.22-8.81-14.5-13.22-21.75l-.12.09.21-.14a14.71,14.71,0,0,0,.64,3.87c1.87,4.08,4,8,6,12.07q5,10.25,10,20.53a2.61,2.61,0,0,1,.11,1.79c-9.63-10.4-15.48-23.27-23.9-34.63a54.1,54.1,0,0,0,2,5.2c4.65,9.53,9.39,19,14.08,28.52a2.29,2.29,0,0,1,0,2c-.91-.52-2.08-.83-2.67-1.6-1.44-1.87-2.57-4-3.91-5.93-1.91-2.76-4-5.39-5.83-8.21-1.33-2.09-2.3-4.4-3.43-6.61q-2.77-5.43-5.54-10.88l-1.14.45A23.88,23.88,0,0,0,171,55.43c3.08,6.68,6.4,13.25,9.34,20,1.21,2.77,1.68,5.87,2.49,8.82l-.67.56c-.63-.33-1.26-.66-1.88-1-.08,0-.09-.23-.15-.34-4.56-8.13-9.07-16.28-13.71-24.37a33.07,33.07,0,0,0-3.36-4.18c-.05-.14-.11-.27-.06-.17-.1-.06,0,0,.14.1a37.8,37.8,0,0,0,1.92,5.94A116.6,116.6,0,0,1,173.32,80c.45,1.51.82,3,1.22,4.57l-.8.43c-.73-1-1.51-2-2.18-3.13-2.62-4.22-4.89-8.59-8.25-12.41-2.41-2.73-3.64-6.49-5.48-9.74a8.24,8.24,0,0,0-1.66-1.62Zm19.55-40.71-2.58-.17-.18.59,2.19,1.16.46-1.7,2.07.43-.1-.83Zm-47.17,9.83c-2.28.52-3.39,1.78-2.88,4.12,2.33,1.83,4.4-.07,6.14.11l2.82-2.64-.81-3.29-4.37.2,2.64,1.64c-1.46,2.11-2.94,3.63-6.06,2.75l2.43-3,.26-.2ZM191,8.31l-2.9.82c2.42,3.41,5.89,2.25,8.45,3.4.6-.93,1.08-1.64,1.53-2.37.05-.07-.05-.22-.09-.34-2.79-2.6-3.75-2.8-7.08-1.44Zm12,8c-1.67,2.54,1.15,2.62,1.62,3.91L207.33,25l1-.45-1.19-4.06,5.46-1.65L215.59,21c-1.18-5.08-4.61-7-11.94-7.21,1.34,3.6,5.53.58,7.25,3.16C207.67,18.83,205.81,18.7,203,16.27Zm7.73,12.26c-.1.71-.31,1.16-.17,1.4,3,5.16,5.9,10.33,9,15.4.41.67,1.64.84,2.48,1.23l.5-.74C218.62,40.14,214.74,34.47,210.68,28.53ZM148,14.31l-3.15-1.49-4.68,1.1L138,17.42C144.12,19.85,147.64,18.73,148,14.31Zm35.42,5.21-.66.64c.29.71.39,1.77.92,2.09,3.4,2.05,6.84,1.37,10.07.19,1-2.28.29-3.45-1.68-4.23l-5.69.76v.43L191,20.8C187.85,22.12,185.36,22.6,183.37,19.52ZM158.6,22.63c-3.88-1.22-8.31,0-10.23,2.74C152.43,28.67,156.86,27.58,158.6,22.63Zm7.08-11.86c.41,1.57.66,2.54.86,3.36,5.76.88,7.75.12,8.88-3.4C172.38,7.63,169.39,10.21,165.68,10.77Zm-7.11-3.09c-4.2,3.27-5.5,3.3-7.3.39l2.61-1.15a13.72,13.72,0,0,0-2.17,0,5.56,5.56,0,0,0-1.2.58c.27,3.18,1.49,4.16,4.86,4.08,3-.07,4.47-1.48,4.44-4.8L156,6.33c0,.07,0,.14,0,0Zm-49.9,50.73c-2.1,3.13-2,4.15.65,6.8C109.06,62.53,108.87,60.47,108.67,58.41Zm7.88,6.3c1.3-3.07,0-5.13-1.13-7.91C114.79,59.86,114.28,62.21,116.55,64.71Zm6-8.12c-.54,3.83,0,5.14,2.32,6.39C125.06,60.49,123.86,58.74,122.53,56.59Zm10.68,4.2,1.1-.55c-.83-1.74-1.66-3.49-2.48-5.23C131,57.45,131.33,59.42,133.21,60.79ZM160.27,51l.82-.33c0-1.8-.24-3.5-1.85-4.66l-.82.32ZM195,34.11c.21-2.24-.15-3.66-2.18-4.6C192.1,31.82,193.28,32.83,195,34.11Zm5.2-9.41-1.31.72,2.31,3.89,1-.56ZM138.92,53.58l-1.28.36,1.59,4.12,1-.36ZM103.1,60.21l-1.13,0v4.4l.79,0C102.87,63.14,103,61.68,103.1,60.21Zm51-6.74c.88-2.95.84-2.94-1.73-4.21C153.13,51,153.63,52.24,154.14,53.47Zm13.66-6.09,1-.38c.62-1.79-.45-2.61-2.45-2.94ZM146,51.82l-1,.44,1.71,3.92,1-.41Zm41.19-14.69,1-.54c-.51-1-1-1.9-1.51-2.86l-1.06.59Zm-5.95,4.07.88-.73-1.88-2.79-1,.71Zm-7.36,2.88c0-2.13,0-2.13-1.75-2.92ZM187,24.76l-.66.87,2.24,1.45.49-.74ZM95.83,61.86l-.77.07.13,2.32.82-.06Zm36.87-25,.66-.81-1.81-1.45-.64.79Zm64-19.67-.47.85,2.5,1.55.6-1.1ZM151.18,37l-.7.83L152.11,39l.49-.64C152.13,37.88,151.66,37.43,151.18,37Zm-44.39,18.5,1.91-.25L108,52.9ZM129,51.77l.86-.25-.59-1.82-.77.22Zm-31.82,4.8.76.06.59-2.49L97.67,54Zm6-2.63-.76-.16L101.9,56l.82.17Zm70.34-25.29-.72.79,1.78,1.45.51-.59Zm35.9-18.1-.53.69c.59.48,1.18,1,1.78,1.43l.6-.79ZM183.24,30.81l.79-.71-1.49-1.38-.54.57ZM128.83,39l.88-.84-2-1.73-.59.63ZM108,34.33c.55,1.2.62,1.72.9,1.9a3.61,3.61,0,0,0,1.35.23l.21-.56Zm6.7,20.23.9-.06-.31-1.65-.59.09Zm7.36-3.33-.74.12.23,1.94.83-.14Zm49.6-13.62,1.2-1.12-1.39-1.26-.82.69ZM153.38,13.35l-1,1,1.5,1.32L155,14.54ZM101.47,47.44,100.8,47l-.6,2.16.44.16Zm7.21,1.84,1,.13V47.9l-.55-.08ZM160,40.2l-.82.11.24,1.53.77-.08Zm16.44-8-.41.82,1.59.63.27-.58Zm-64.9.06-.6.95,1.49,1.12.45-.45Zm50.7-9.17.46-.75-1.21-.4-.18.38ZM181,15.72l.19-.68-1.55-.44-.2.68ZM151.62,43.57l-.35.53,1.27.85.36-.56ZM199.87,9.14l.54-.65-1.51-.67-.26.48ZM157.38,37.51l.55-.29-.83-1.61-.6.33Zm-20.79-4.26-.54.75,1.36.58.27-.47Zm23.32-9.6-.41.48,1.25,1.09.42-.51Zm-30.27-6.73.49.21.61-.93-.85-.36Zm28.07-2,.24-.57-1.4-.59-.23.53ZM137,49.46l.62-.11-.25-1.68-.7.13Zm28.64-10.28.53-.68-1.09-.57-.32.49Zm-61.08,9-.46-.24c-.17.13-.5.29-.49.41a3.06,3.06,0,0,0,.35.85Zm29.77-33.22-.11-.57-.88.16.15.64Zm10.26,32.2h.31V46.07h-.31Z"/><path class="cls-1" d="M143,174.73c-3.8-1.3-6.33-4.08-8.33-7.38-1.14-1.89-1.94-4-3.19-5.92-1.38,4.81,1.43,8.92,2.81,13.57-2.62-1.57-8.2-10.26-10.27-14.81a22.58,22.58,0,0,0-.22,3.92c.24,2.33.72,4.64,1.11,7L125,171c-3.74-1.74-5.53-5.08-7-8.64-.65-1.54-1.22-3.12-2-5.05-1.37,3.35-1.37,3.35,1.18,13.68-.9-.75-2.15-1.31-2.62-2.27-1.92-3.89-3.61-7.89-5.36-11.86-.28-.62-.48-1.29-.82-2.23-1.64,3.78-1.64,3.91.62,12.18-2.62-1.47-4.77-2.89-5.92-5.47l1.68-.44c0-2.53-.32-4.73-1.67-6.63l-.82.15.93,7A14.25,14.25,0,0,1,97.92,152a36.19,36.19,0,0,1-.15-8.58c.46-5.62,3.42-8.24,9.12-8.16,4,0,8,.46,12,.53,5.74.1,11.48,0,17.32,0l2.9,3.55c.16-1.46.24-2.2.35-3.23l3.31-.3,4.85,5.18c-.32-2-.54-3.39-.79-5h3.79l3.91,5.13.45-.21c-.41-1.53-.81-3.06-1.21-4.58,3.06-.73,3.06-.73,7.77,5.75-.61-2.47-1-4.21-1.52-6.17h2.44c1.82,3.85,3.64,7.69,8.9,7.37l3.78,4.46.76-.31-1-4.63,2.51-1.08c.27,1.14.47,2,.71,3,3.2.34,4.8,3,6,5.49,4.18,8.89,8,17.94,12.32,27.68-1.24-.4-2.26-.41-2.72-.93a54.29,54.29,0,0,1-4.32-5.58c-2.56-3.84-5-7.78-7.5-11.64a27.78,27.78,0,0,0-2.37-2.75l-.72.39,8.77,20.3c-2.63.18-3.48-1.07-4.16-2.59a38.26,38.26,0,0,0-9.5-12.51l5.64,14.73-.94.74a19.93,19.93,0,0,1-2.67-2.32c-2.42-3-4.67-6.16-7.1-9.15a14.54,14.54,0,0,0-2.76-2.12v-.21l.1.13,4.48,12.64c-4.09-1.7-5.88-4.52-7.79-7.12s-3.5-5.27-5.23-7.92l-.87.48q2.9,7.47,5.8,14.93l-.73.37c-5.73-4.06-10.69-8.83-13.69-15.49-.69,5.32,4.63,9.13,3.28,15-4.59-5.66-10.56-9.77-11.94-17.33-1.1,2.22-.39,4.23.22,6.13.95,2.94,2.18,5.79,3.3,8.68Zm26.09-20.8-.22-.26.31.18a9.34,9.34,0,0,0,3.83,6.48C172.34,157.17,171.42,155.12,169.09,153.93Zm-9.23-1.3c.58-3.39-1.81-5-3.05-7.21C157,148.06,157,150.8,159.86,152.63Zm4,8.7,1.06-.7-3.17-5-.92.56C161.59,158.08,161.78,160.24,163.9,161.33Zm-8.81-7.47-1.37.57,2.5,5.61,1.13-.47Zm-31.79,2.82.9-.16c.63-2.81.63-2.81-1.38-4.48Zm4.79-15.19c.57-2,.19-3.45-2-4C125,139.9,127.17,140.37,128.09,141.49Zm2.56,12.07-1.25.15a5.21,5.21,0,0,0,1,4.51l.94-.15C131.14,156.56,130.9,155.06,130.65,153.56Zm2.42-16-1.33.61,2,3.52,1-.5Zm32.6,11.62.85-.64-2.75-4.3-.83.53Zm-44.3-12-1.32.93,2.24,3.06,1-.62Zm25.07,18.78-1.27.47c.45,1.13.89,2.25,1.33,3.37l.94-.32C147.11,158.27,146.78,157.1,146.44,155.92Zm-38.34-8.19c-1.71,2.11-1.71,2.11,0,3.87Zm6.79,2.16-1.42.3.86,3.4,1-.2Zm-12.48-3.3-1,.07.26,3.25,1-.07Zm38.35-5.54-.85.49,1.28,2.35,1-.54Zm9.66,5.7.88-.68-1.81-2.27-.76.58Zm-10.81,7.84-1.07.12.35,2.52.91-.1Zm37.93-4.35-1.09.34,1,2.83.9-.3C178.07,152.15,177.8,151.2,177.54,150.24Zm-67.61-12.77c.95,1.86.95,1.86,2.1.13Zm34.68,15.58.92-.43-.79-1.53-.65.25Zm7.9-3.68-.56.28.65,1.29.57-.28Zm-45-10.49v-.55h-1.24v.55Zm7.28-1-.18.66,1.32.33.17-.61Z"/><path class="cls-1" d="M213.57,132.23l-.66-1.29,9-3.75,2-5c-.79-2-1.53-3.8-2.32-5.78,3-.38,2.17,2.4,3.4,3.88l3.32-3,5.54,2.7c.2-1.12.38-2.17.58-3.3,2.41,1.72,2.48,2.13,1,5.4,3.44,5.49,6.1,5.71,10.75.89,3-3.07,3.48-3.31,7-3.21l1.19-3.15.95.2-.53,4.82c1.71,2.94,3.63,6.26,5.63,9.69l4.6-.24-4.12-2.62.26-.62,8-.87v-.56l-4.4-1.26v-1.94l-1.82.64.07.09c-.23-2.33,1.66-2.47,3.12-2.88A52.18,52.18,0,0,0,275.4,118H265.32c2.11-4.78,7.43-3.22,10.45-5.72l-5.71-1.12L266.77,113l-.51-.8c2-3.87,7.06-3.66,9.79-7l-4.51.32v-.57L268.2,107c-.51-1.11-.81-1.77-1.49-3.29-.63,1.34-1.1,2.36-1.57,3.38l-1-.3-1.82-3.34c7.69-1.28,13.11-6.89,20.9-8.14.34,2,.58,3.53.8,4.86l-3.47,3.2,1.11,1.33c-.36,1.81-.71,3.63-1.1,5.62l-1.28.78,3.46,5.14-2.39,1.27c5.23,1.74,6.45,5.93,7.33,10.34l-.66.68-3-1.82.36-2-5.07-3.06,0-.71-11.21,2.11v.94l6.31.86c0,3.15-1.07,5.9-3.85,7.46a18.62,18.62,0,0,1-11.21,2.16c-3.79-3.55-3-9.39-7.45-12.46a39.72,39.72,0,0,0-9.93,8.47c-2.08-1.89-4.07-3.68-6-5.51-.73-.68-1.37-1.45-2.1-2.14-3.42-3.25-5.7-2.91-7.95,1.16-1.27,2.28-2.5,4.58-3.84,6.81a6.61,6.61,0,0,1-5.87,3.61l2.32-3.08-5,.74Z"/><path class="cls-1" d="M121.84,115.35c3.16-1,6.35-1.92,9.46-3,2.34-.86,4.54-2.09,6.86-3a23.46,23.46,0,0,1,4.09-.67c.64-1.13,2-2,3.11-1.27l5.42-1.67.07.3,7.27-3.35,3.13.6.43-2,4.54.68,1.49-1.3,4.36,1.78-56.81,16.71.07.67,3.71.49c-2.43,2.55-4,2.86-6.43,1.22a22.05,22.05,0,0,1-2.6-2.14c-3.12-2.85-6.6-4-10.65-2.15a6.41,6.41,0,0,1-6.41-.74c-4.26-2.75-8.36-5.8-13.62-6.82,5.08-3,10.47-2.44,16.07-2.27.57,1.56,1.12,3,1.81,5L90.39,111l-.24.65,5.59,3.75c4.8-.08,9.23-2,13.89,0l-.51-1.27.75-.76,3.68-1.66c-2-.42-2-.42-3.61,1.73l-.75.75-7.57-2.35c-2.24-5-3.91-10.59-2.7-16.62l1-.21,1,4,2,.37-1.66,2.78,4.6-.42.4.69-3.3,2.55c0,.16,0,.32,0,.31l-.09-.4c1.43-.26,2.84-.57,4.27-.75,1.23-.16,2.49-.15,4.54-.26l-2.2,2.71c3,1.37,5.57-1,8.73-.46L114.41,109c1.37,1,2.52,1,6-.24,2.06-.75,4-1.85,6-2.8l.45.64-8.91,6.62.56.79c5.4-1.86,9.86-6,15.47-7.4l7.64-3,.4.82q-10.09,5.55-20.18,11.11v.18Zm-7.46.94,2-.9-.52-.61-1.35,1.6c-.15.06-.3.13-.15.07C114.22,116.63,114.3,116.46,114.38,116.29Zm-5.93-7.8-.41-1.13-3.7,2.34.32.6Z"/><path class="cls-1" d="M216.31,124.66c-2.65-2-5.27-4.08-7.95-6.06a8.37,8.37,0,0,0-2-.69c.76,2.32.76,2.32,5.71,6l-.81,2.39-8.68-4.89-.74,1c1.5,1.58,3,3.15,4.94,5.17-3.95-.32-5.09-3.64-8.12-5.34L194.31,124l-3.81-2.61v-2.83c-3.08-2.73-5.58,1.49-8.41-.23l-.31,1.21,6.27,3.66c-6.68.26-9.33-5.5-13.9-8.45-.1-1.25-.19-2.34-.31-3.78l8.76,2.46-4.39-5.83,3.84-.67c-.39,1.05-.61,1.67-.77,2.11l6.07,3-2.88,1.6,5.07,2.7,2.12-3.05L187,107.46l3.4-.23-.53,2.54c1.91,1.45,5.14.63,5.7,4l-2.8,1.82,9.27,4.48c2.06-1.35,2.31-3.57,2.65-5.74l0,.08c2.24,2.42,5.41,1.93,8.2,2.64,2.26.57,4.52,1.09,6.79,1.63l1.3,3.75-.6.41L217,118.63c-1.08,1.18-1.67,2.16-1.09,3.67a9.87,9.87,0,0,1,.3,2.46Zm-31.8-6.81c-.83-3.32-1.25-3.52-5.73-2.75Zm13.33,2.93c-1.54-1.77-2.68-3.32-5.16-2.66l2.41,3.29Z"/><path class="cls-1" d="M217.88,95.81l1,1.84c1.76-.12,3.8-.73,4.52,2.07,1.92-.94,3.51-.71,4.09.73l5.51,2.36c5.54,1.92,11.29,3.36,15.88,7.63l1.45-1.23-11.72-7.08.35-.81,6.43,1.83-.11.3,4.73-.37.63-.61-1.76-.4.16-.74,5.12-1.29c-.72,7.92-3.11,14.56-6.18,17-3.37-.11-6.28-1.89-9.2-3.48a93.09,93.09,0,0,0-24-9.28c-2.05-.46-4.09-1-6.77-1.63l4.22-2.29c1.62,2.65,5.71.15,7.07,3.86l2.28-.27,22.09,8.51.39-.84c-8.41-6.16-18.11-9.82-27.88-13.52.06-.41,0-.82.18-1A13.8,13.8,0,0,1,217.88,95.81Zm30.08,19,.19-.5-1.56-.66-.23.6Z"/><path class="cls-1" d="M220.28,176.49A8.84,8.84,0,0,1,218,174.8c-1.9-2.78-3.71-5.62-5.4-8.53-3.19-5.48-6.52-10.9-9.31-16.59-1.66-3.38-2.39-7.22-3.06-11.09l5,4.25-.4,1.38c1.51,1.35,3.15,2.3,4,3.73a100.34,100.34,0,0,1,4.67,8.9c1.83,3.67,3.71,7.32,5.34,11.07,1.06,2.45,1.72,5.08,2.55,7.63Z"/><path class="cls-1" d="M140.5,133.09l-7.87-1.44L129,122.78c-1.8,3.09.64,6.39-1.81,9.16l-2.43-7.21-.69.06-2.12,6.7-.89-.14-.86-4.25-3.2,4.54-11.7-7.46-.45.44,5.41,6-.63.53-9-10.71-1.05.62,4-2.91c4.68,2.9,7.6,7.56,12.07,11.37l-.21-2.9c4.05-2.19,8.06-4.39,12.11-6.51.49-.25,1.22,0,2.16,0,3,4.44,3.59,11.4,11.17,11.79Z"/><path class="cls-1" d="M186,141.92l-1.1,2.34,3.11,1.31-.11,2.2c.13.12.3.4.5.42,3.08.41,4.89,2.61,6,5.06,3.41,7.45,6.52,15,9.73,22.58a3.27,3.27,0,0,1,.09,1.07c-5.41-2-20.82-27.73-21.31-35.65Z"/><path class="cls-1" d="M229.54,174.33c-6.56-5.81-10.88-13-14.56-20.67-2.6-5.44-5.71-10.64-8.87-16.48l5.42,2.34-1,2.3,3.57,1.35c-.06,1-.12,2.16-.19,3.33C219.62,150.05,228.06,165,229.54,174.33Z"/><path class="cls-1" d="M229.48,144.39c2.7.35,4.2,1.6,4.12,4,4.55,3.76,10.79,15.73,11.83,22.49-5.29-1.88-18.85-23.9-21.32-34.62,2.38.16,2.38.16,2.29,2.31l4,3.61Z"/><path class="cls-1" d="M213.53,177.07A11.73,11.73,0,0,1,211,175c-3.61-5.37-7.19-10.77-10.62-16.25-2.45-3.91-4.66-8-6.93-12-.79-1.39-1.46-2.86-2.23-4.37,1.76-.15,1.76-.15,2.28,1.39,4.16,2.18,7,5.67,9.12,9.69,3.84,7.12,7.59,14.29,11.36,21.45a6.56,6.56,0,0,1,.36,1.37Z"/><path class="cls-1" d="M216.65,139.23c2.43-.09,2.43-.09,2.78,2.5,1.41.88,3.64,1.33,2.82,3.82,8.51,7.33,10.83,18.22,16.45,27.29a5.21,5.21,0,0,1-1.17.54,5.06,5.06,0,0,1-1.22-.1C230.65,161.47,219.93,152.54,216.65,139.23Z"/><path class="cls-1" d="M231.44,136.74l2.37-.37c.12.72.21,1.27.31,1.92,2,.7,4.64.88,3.82,3.72a61,61,0,0,1,4.16,4.76c4.15,5.86,6.79,12.47,9.22,19.17a20.58,20.58,0,0,1,.52,2.09l-.67.51a30.63,30.63,0,0,1-3.85-4.48c-3.8-6.57-7.36-13.28-11.11-19.88C234.8,141.7,233.14,139.38,231.44,136.74Z"/><path class="cls-1" d="M256.59,165c-.44-.87-.92-1.7-1.3-2.57a33.46,33.46,0,0,0-5-7.3c-4.29-5.29-8.17-11-10-18.43l3.35,2V141l3.13.57c4.23,6,9.33,11.87,11.22,19.64C258.3,162.67,258.82,164.13,256.59,165Z"/><path class="cls-1" d="M171.27,134.91l6-.77-1.8,2.21c2.74-.43,5.26-1.15,7.78-1.13s4.85.81,7.27,1.25l.59-.72-3.47-2,.43-.72,3.47-.4c1.16-1.43,2.48-3.05,3.76-4.64,3.64-1.6,5.83.93,8.27,2.7l.06-.08a26.24,26.24,0,0,0-3.54-.9,40.71,40.71,0,0,0-4.29,0c-.9,2.55-1.68,4.73-2.6,7.33-2.48,1.32-5.45.46-8.36.26a31.29,31.29,0,0,0-4.05-.43c-4.15.28-8.12,2.84-12.6.34l-5.49-8.34c2-.06,2.09,0,5.21,3l4.81,1.19-1.38,2Z"/><path class="cls-1" d="M195.56,92.26c2.7-3.76,2.7-3.76,5.76-2.69l-2.12,2c5.73.64,9.73-1.93,14-4.66a10.59,10.59,0,0,1-1.19,1.8,22.27,22.27,0,0,1-13.53,6.55,43.76,43.76,0,0,1-24.7-4.11,2.48,2.48,0,0,1-1.36-1.65,30.66,30.66,0,0,1,3.45.58c2.86.82,5.68,1.8,8.54,2.59a10.58,10.58,0,0,0,3.32.3C190.11,92.81,192.51,92.53,195.56,92.26Z"/><path class="cls-1" d="M90.28,131.45l6,2.9c-.65,2.09-2.23,1-3.23.59-3.41-1.3-7.31-2.05-9.25-6.37l8.78-.94,9.7,2.61-.08,1-11.82.26Z"/><path class="cls-1" d="M227.59,85.66c7.85,1.12,15.61,3.62,24.08,1.26l-2.08-1.09c2.12-.24,4.16-.12,5.9-.77s3.31-2.1,5.05-3.27c.42,1.94-.67,3.36-2,4.39A13.16,13.16,0,0,1,254,88.61C244.83,90.93,236.09,89.25,227.59,85.66Z"/><path class="cls-1" d="M107.92,86.21c8.72,5.21,8.72,5.21,12.87,5.21a12.23,12.23,0,0,0-.75-1.11,7.89,7.89,0,0,0-.91-.76c1.5-1.85,2.84-.86,4.42.09l-1,2.49c5.47.9,10.5-1.08,15.91-1C125.79,96.47,110,93.86,107.92,86.21Z"/><path class="cls-1" d="M160.3,119.21l2.83-3.78-1.61-4.27c2.32.1,2.83,1.3,3.3,2.8a6.54,6.54,0,0,0,1.8,3c2.69,2.12,3.61,3.09,5.51,7.16-2.35-.25-3.18-2-4.19-3.39s-2.2-3.08-4.7-2.36l7.45,8.42-.69.69Z"/><path class="cls-1" d="M132.05,98l-.36,3.47h-14L117.36,98Zm-2,1.2-.68.06.28,1.18.4-.07Zm-11.15.08-.31.36.39.71.55-.6Z"/><path class="cls-1" d="M248.75,138l3.17.59c2.92,5.24,5.78,10.3,8.54,15.42a19.76,19.76,0,0,1,1,3.86,10.19,10.19,0,0,1-1.61-1.39q-5.52-8.62-11-17.31a3.53,3.53,0,0,1-.28-1.05Z"/><path class="cls-1" d="M164.15,126.36c-3.35,1-3.83-3-6.62-3.17l-1.72,1.43c-2.67-1.17-5.11-2.4-4.82-6l1.82,2.86h3.54L153,116c3.52.7,4.33,3.43,5.9,5.26S163.84,123.11,164.15,126.36Z"/><path class="cls-1" d="M170.79,117.07c-1.26-.95-2.35-1.77-3.45-2.58l.42-1.08c.9.16,2,0,2.66.54,3.32,2.69,6.53,5.55,10.3,8.8C174.9,123.79,172.85,120.23,170.79,117.07Z"/><path class="cls-1" d="M173.75,97.88V96.39l18.58,4.13c-1.39.49-2.11,1-2.76.93-3.71-.41-7.4-.93-11.08-1.49a8.74,8.74,0,0,1-1.94-.91C175.76,98.7,175,98.39,173.75,97.88Z"/><path class="cls-1" d="M146.69,125l2.52,3.39c-3.79-.9-5.13-4.6-8.34-6.23,2.54-.8,5,1.55,7.11-1.11l5.6,5.31-.39.61-5.86-3Z"/><path class="cls-1" d="M258.34,105.94c1.12,2.07,1.94,3.57,2.59,4.78l-2,9.46.68.39-2.76,1.78C257.37,116.66,257.83,111.57,258.34,105.94Z"/><path class="cls-1" d="M262.63,150.45c-3.28-4.77-6.1-8.87-9.13-13.25C257.73,137.92,262.13,144.27,262.63,150.45Z"/><path class="cls-1" d="M109.15,98.29c-4.76-2.74-6.94-6.43-6.65-10.86l7.35,7.92.06-.07-.81,3.12Z"/><path class="cls-1" d="M204.71,114.33c-1.36,1.59-2.89,2.7-5.42,1.76l1.38-2.16c-.47-3.08-4.65-3.9-4.42-7.48,3.31-.64,1.57,2.27,2.63,3.44l3.09.93,2.71,3.59Z"/><path class="cls-1" d="M260,43.54a36.63,36.63,0,0,1-9.86-13.62c3.77,2.19,8.46,9,9.78,13.68Z"/><path class="cls-1" d="M147.47,102.15c.45-2.44,3.07-2.17,4.43-3.53a12.59,12.59,0,0,1,3.17-1.71l5.5-.51.15.95-13.31,4.72Z"/><path class="cls-1" d="M251.17,95.89l-2,1.3c.13-1.45.2-2.3.28-3.19l8.21-1.7.07.08c-1.47,2.54-3.81,3.51-6.62,3.58h-.18Z"/><path class="cls-1" d="M248.54,27c-4.9-.25-6.16-1.4-6.35-5.35Z"/><path class="cls-1" d="M143.62,129.26c-2.1-1.51-4.25-3-4.94-5.7l.64-.59c1.66,1.86,3.33,3.71,5,5.56Z"/><path class="cls-1" d="M140.52,98.84l-2.7,1-.28-3.53,3-1Z"/><path class="cls-1" d="M207.52,114.06,205,108C208.18,108.79,208.65,109.85,207.52,114.06Z"/><path class="cls-1" d="M136.07,100.3l-2.64.29-.24-3.16,2.69-.61C135.94,98,136,98.94,136.07,100.3Z"/><path class="cls-1" d="M243.18,97.12l-2.76-.29c.11-1,.19-1.8.3-2.8h3.55Z"/><path class="cls-1" d="M229.16,131.32l6.82-1,.14.95c-2.12,1.56-4.56.63-6.86.79Z"/><path class="cls-1" d="M212.07,111.48l2.22,2.61c-2.64.36-3.1-.5-3.1-5.43l2.69,1.18Z"/><path class="cls-1" d="M92.68,126c2.36-2.47,2.93-2.35,5.35.86Z"/><path class="cls-1" d="M144.85,94.06v3.26l-1.67.66a5.35,5.35,0,0,1-.51-2,10,10,0,0,1,1.09-2.36Z"/><path class="cls-1" d="M120.45,19.61l2.7-.84c-.71,2.4-1.49,4.43-4.24,3l-.06.12,1.62-2.38Z"/><path class="cls-1" d="M221.84,91.85c-2-1.14-.26-2.14,0-3.49l3.11,1.31c-1.12,1-.57,3.65-3.16,2.08l.63-1.36-.63-.17Z"/><path class="cls-1" d="M225.76,93.64c.34-1.16.57-2,.85-2.94l2.69.37c-.41,1.19-.74,2.15-1.11,3.2Zm1.68-1.36-.06-.27c-.07,0-.21,0-.21.06a1.27,1.27,0,0,0,.06.28Z"/><path class="cls-1" d="M180.61,126.2l1.88-1.65,2.75,2.21-.45.91Z"/><path class="cls-1" d="M235.85,93.76l3.43-.73-1.71,4c-.79-1.45-1.31-2.4-1.82-3.36Z"/><path class="cls-1" d="M248.6,138.14c-.85-1.17-1.69-2.34-2.54-3.5l.73-.72,2.67,1.42c-.29,1.07-.5,1.88-.71,2.68Z"/><path class="cls-1" d="M248.48,94.15l-2.34,3.15-.94-.38.23-3Z"/><path class="cls-1" d="M109.85,95.35l2.18.44v4.29l-2.88-1.79-.05.11c2.23-.52,1.36-1.86.81-3.12Z"/><path class="cls-1" d="M170,96.14c-.23-.54-.46-1.07-.9-2.13,2.31.53,3.62,1.1,2.71,3.89l-1.89-1.85,1.11-.17-.27-.49Z"/><path class="cls-1" d="M221.67,113.56,218.48,111c2.57-1.12,3,.59,3.8,1.73Z"/><path class="cls-1" d="M197.21,100.9h-4.59l-.07-.88,4.59-.23Z"/><path class="cls-1" d="M178.26,129.5l-3.86-.67C175.9,126.57,176.21,126.62,178.26,129.5Z"/><path class="cls-1" d="M239.87,122.67c.18-1.25.35-2.52,2.71-2.15l-1.76,2.78Z"/><path class="cls-1" d="M115.41,97l.18,3.36-1,.09-.4-3.33Z"/><path class="cls-1" d="M147.41,102.07l-3.92,2.11c.53-2.73,2.36-2.1,4-2Z"/><path class="cls-1" d="M147.72,95.06c-.09-1.08-.19-2.16-.29-3.25l.95-.13c.15,1.11.31,2.22.46,3.33Z"/><path class="cls-1" d="M231,95.36l.8-3.27,1.59.34C232.75,93.62,233.1,95.18,231,95.36Z"/><path class="cls-1" d="M165.4,91.14,168.17,93l-2.62.68Z"/><path class="cls-1" d="M228.11,126.56c.44-1.54.62-2.16.87-3.06l2.31,1.13Z"/><path class="cls-1" d="M199.27,99.59l3.15-.71.25.53a8.06,8.06,0,0,1-1.47.9,6.92,6.92,0,0,1-1.66.22Z"/><path class="cls-1" d="M158.72,115.92l-1.9-2.42C159.06,113.27,159.33,114.25,158.72,115.92Z"/><path class="cls-1" d="M187.19,89.23l-2.62.79-.24-1,2.7-.48Z"/><path class="cls-1" d="M126.1,88.66l2.57.12,0,.86-2.56-.12Z"/><path class="cls-1" d="M146.14,119.1l-1.85,1.48-.81-.9,1.38-1.9Z"/><path class="cls-1" d="M151.41,92.5l-.28-2.2.89-.1.17,2.22Z"/><path class="cls-1" d="M137.9,121.44l-1-2.17.91-.38.89,2.19Z"/><path class="cls-1" d="M189.91,89.87l2.25-.63.21.65-2.08.79Z"/><path class="cls-1" d="M207.52,97.84l-1.91.77-.27-.61,1.77-.85Z"/><path class="cls-1" d="M230.26,128.64l2.46-2,.44.72-3,1.25Z"/><path class="cls-1" d="M167.87,111.08c-.48-.61-1-1.21-1.46-1.82l.52-.53,1.75,1.63Z"/><path class="cls-1" d="M251.87,130.82l-1.44-.52.07-.28,1.51.3Z"/><path class="cls-1" d="M159.88,131.17h-2.66v-.5h2.66Z"/><path class="cls-1" d="M196.75,88.78l-1,1-1-1,1.07-.92Z"/><path class="cls-1" d="M116.3,88.07l-1.72-.4.08-.5,1.76.21Z"/><path class="cls-1" d="M240.35,84.6h-2.11v-.28l2.1-.14Z"/><path class="cls-1" d="M228.05,114.13l1.71.46-.21.64-1.66-.61Z"/><path class="cls-1" d="M261.9,139l.31,1.39-.59.14-.37-1.37Z"/><path class="cls-1" d="M93.22,122.4,92,121.53l.28-.47,1.31.67Z"/><path class="cls-1" d="M151.57,114l-1.25-.38.22-.64,1.22.45Z"/><path class="cls-1" d="M172.36,108.62l-.35-.89.51-.17.24.92Z"/><path class="cls-1" d="M251.41,127.36h-1l-.08-.32,1-.37Z"/><path class="cls-1" d="M246.23,83.86,245,84l0-.47,1.24-.17Z"/><path class="cls-1" d="M213.48,132.13l-1.29.61-.09-.51h1.47Z"/><path class="cls-1" d="M230.17,128.58l-1.57.37,0-.42,1.7.11Z"/><path class="cls-1" d="M203.6,130.65l2.22.68.07-.07-2.23-.69Z"/><path class="cls-1" d="M162.82,91.4h0C162.85,91.67,162.87,91.94,162.82,91.4Z"/><path class="cls-1" d="M260.58,45.29c-.21-.58-.41-1.17-.62-1.75l-.08.06c.21.53.41,1.06.61,1.6Z"/><path class="cls-1" d="M143,116.1c-.24,0-.48.08-.71.1a.9.9,0,0,1-.07-.27l.7-.19Z"/><path class="cls-1" d="M139.87,117.91c.25.2.5.39.12.09.11.5,0,.16,0-.17Z"/><path class="cls-1" d="M260.49,45.2l.23.14-.14-.05Z"/><polygon class="cls-1" points="235.51 95.84 235.44 95.6 235.65 95.63 235.51 95.84"/><path class="cls-1" d="M211.22,95.39c.08-.19.16-.38.05-.14.25-.1.06,0-.13.06Z"/><path class="cls-1" d="M205.82,131.33l.07-.07Z"/><path class="cls-1" d="M167.48,95l-.23.21c-.07-.08-.19-.17-.18-.24s.14-.14.21-.21Z"/><polygon class="cls-1" points="235.75 93.69 235.87 93.95 235.85 93.76 235.75 93.69"/><path class="cls-1" d="M257.62,92.3l.37-.51-.3.59Z"/><path class="cls-1" d="M262.93,123.86l-.11.12.18,0Z"/><path class="cls-1" d="M211.14,95.31l-.32.59.4-.51Z"/><path class="cls-1" d="M118.93,20.4l.7-.81,0-.05-.76.76Z"/><path class="cls-1" d="M119.63,19.59l.82,0,0-.07h-.86Z"/><path class="cls-1" d="M216.23,124.76l.26-.1h-.18Z"/><path class="cls-1" d="M124.91,171.07l.16.19s0-.12-.08-.26Z"/><path class="cls-1" d="M142.92,174.81a2.08,2.08,0,0,0,.18.22,2.83,2.83,0,0,1-.1-.3Z"/><path class="cls-1" d="M140,117.83l-.28-.11.2.19Z"/><path class="cls-1" d="M328.05,223.36V205.78c2.86.24,5.61.16,8.2.77,3.89.92,5.6,5.62,4.64,11.72-.6,3.82-2.54,5.44-6.75,5.45C332.18,223.73,330.22,223.49,328.05,223.36Z"/><path class="cls-1" d="M318.6,205c2.08,4.48,2,39.31,0,43.5A275.86,275.86,0,0,1,318.6,205Z"/><path class="cls-1" d="M349.65,257.6a14.08,14.08,0,0,1-2.84-8.68c-.12-4.21-.4-8.41-.61-12.61l-.08.07c.78,1.27,1.89,2.46,2.27,3.84a29,29,0,0,1,.65,5.91c.22,3.8.36,7.61.52,11.41Z"/><path class="cls-1" d="M346.43,205.31c5.83,4.3,6.43,10.06,1.19,15.93a12.78,12.78,0,0,1,.39-1.93c1.77-4.33,1.68-8.44-1.24-12.31-.29-.39-.19-1.07-.26-1.61Z"/><path class="cls-1" d="M346.51,205.39l-.25,0,.17,0Z"/><path class="cls-1" d="M346.2,236.31l-.49-.24.41.31Z"/><path class="cls-1" d="M349.56,257.54l.25,0-.16,0Z"/><path class="cls-1" d="M23.69,254.86V233.34a37.42,37.42,0,0,1,4.09-.6c4.23-.18,6.86,1.56,7.38,5.75a32,32,0,0,1-.52,9.95c-.6,3-3.1,4.72-6.08,5.48C27.13,254.29,25.65,254.49,23.69,254.86Z"/><path class="cls-1" d="M23.75,206.26c3.48-.37,7-1.12,9.06,2.18,2.29,3.73,2.08,8,.17,11.83-1.8,3.64-5.4,3.9-9.23,3.91Z"/><path class="cls-1" d="M14.29,257.19c-1.39-10.66-1.23-45.71.15-51.51C16.14,209.72,16.21,252.15,14.29,257.19Z"/><path class="cls-1" d="M41.86,249.21a5.77,5.77,0,0,1,.15-1.78c2.06-5,1.41-9.47-2.3-13.61,6.47,2.2,7.4,9.79,2.06,15.31Z"/><path class="cls-1" d="M38.75,204c5.81,3.17,6.49,10.13,1.47,15.09l.08.1c0-.36-.22-.78-.1-1.07a12.42,12.42,0,0,0-1.5-13.55c-.09-.12.08-.44.13-.67Z"/><path class="cls-1" d="M38.83,203.93l-.35.07.27,0Z"/><path class="cls-1" d="M40.22,219.12l-.25.16.33-.06Z"/><polygon class="cls-1" points="41.77 249.13 41.59 249.18 41.86 249.21 41.77 249.13"/><path class="cls-1" d="M141.36,218c0-4.64,0-8.48,0-12.32,0-.59.15-1.18.3-2.33a80.51,80.51,0,0,1,8.54.67c3,.55,4.17,2.38,4.38,6s-.94,6.08-3.89,6.8S144.86,217.61,141.36,218Z"/><path class="cls-1" d="M132.16,238.8a159.35,159.35,0,0,1-.3-33.63C133.8,208.15,134.15,233.14,132.16,238.8Z"/><path class="cls-1" d="M162.82,240.46a12.16,12.16,0,0,1-2.07-7.4c0-2.32-.27-4.65-.07-7,2.51,4.51,2.24,9.45,2.08,14.38Z"/><path class="cls-1" d="M159.94,215.88c2.4-4.28,1.58-8.42-.57-12.5l.06-.07c3.3,1.15,4,3.89,3.71,6.81-.21,2.25,0,5-3.27,5.68Z"/><path class="cls-1" d="M159.37,203.38l.18.1c-.38-.52-.25-.35-.12-.17Z"/><polygon class="cls-1" points="162.76 240.41 163 240.33 162.82 240.46 162.76 240.41"/><path class="cls-1" d="M159.87,215.8l.16.24-.09-.16Z"/><path class="cls-1" d="M259.74,205.42a181.56,181.56,0,0,1-.35,36.85c-1.59-6-1.16-12.16-1.22-18.26s.23-12.35.37-18.53Z"/><path class="cls-1" d="M200.19,241.35c-2.1.63-2.88-1.16-3.81-2.3a25.19,25.19,0,0,1-5.19-20.4c.62-4,2.35-7.81,3.82-11.62.45-1.15,1.72-2,2.61-3l.13.14a25.57,25.57,0,0,1-.94,2.38c-6.24,12.31-5.21,23.93,3.27,34.86Z"/><path class="cls-1" d="M226,240.34a24.11,24.11,0,0,1-.17-14.6C227.55,228.2,227.75,235.67,226,240.34Z"/><path class="cls-1" d="M197.62,204.05l1-.49-.1-.09-.77.72Z"/><path class="cls-1" d="M200.08,241.43l0,.14c0,.15,0,0,.07-.22Z"/><path class="cls-1" d="M198.62,203.56l0-.37s0,.13-.07.28Z"/><path class="cls-1" d="M72,204.37c1.76,6.5,1.66,31.83,0,36.58C70.51,234.87,70.43,213.27,72,204.37Z"/><path class="cls-1" d="M103.32,235.64V205.05C105.16,209,105.21,231.2,103.32,235.64Z"/><path d="M223.3,30.84c2.11,3.43,4.31,6.8,6.28,10.3.66,1.18.7,2.69,1,4l.11-.09c-.95-.73-2.19-1.29-2.81-2.24C224.71,38,221.65,33,218.59,28a15.73,15.73,0,0,1-.93-2.73L221,28.33l1.58-1.06-.1-.09c.64.6,1.19,1.53,1.94,1.75a32.07,32.07,0,0,0,4.71.73l.61-.89-2.7-1.7,1.52-1.1c-.83-3.13-3.58-4.3-5.74-5.7L219.68,15l.44-.63L223.9,17H229l.34-.61,3.27,3c0,3.23-2,3.53-4.41,4,1.5,1.85,2.84,3.39,4,5,2.13,2.93,4.2,5.9,6.24,8.9.91,1.35.84,1.39-.25,3.2-3-2.49-3.36-7.07-6.74-9.12l-.75.4c.22,1.07.45,2.13.65,3.09l-8.18-4.12-.16-.08ZM225,19.18c1.42,1,2.78,2.25,5.19,1.09C228.59,18.3,226.81,18.7,225,19.18Z"/><path d="M203,16.27c2.86,2.43,4.72,2.56,8,.65-1.72-2.58-5.91.44-7.25-3.16,7.33.17,10.76,2.13,11.94,7.21l-2.94-2.13-5.46,1.65,1.19,4.06-1,.45-2.76-4.82C204.1,18.89,201.28,18.81,203,16.27Z"/><path d="M210.68,28.53c4.06,5.94,7.94,11.61,11.81,17.29l-.5.74c-.84-.39-2.07-.56-2.48-1.23-3.1-5.07-6-10.24-9-15.4C210.37,29.69,210.58,29.24,210.68,28.53Z"/><path d="M148,14.31c-.31,4.42-3.83,5.54-9.91,3.11l2.08-3.5,4.68-1.1Zm-7.83,1.88.34.77,5-2C142.12,14,142.12,14,140.12,16.19Z"/><path d="M183.37,19.52c2,3.08,4.48,2.6,7.67,1.28l-4.72-1.4V19l5.69-.76c2,.78,2.72,1.95,1.68,4.23-3.23,1.18-6.67,1.86-10.07-.19-.53-.32-.63-1.38-.92-2.09Z"/><path d="M158.6,22.63c-1.74,4.95-6.17,6-10.23,2.74C150.29,22.67,154.72,21.41,158.6,22.63Zm-8.64,2,.48,1.33,5-1.93L155,22.9Z"/><path d="M190.89,8.38C194.22,7,195.18,7.22,198,9.82c0,.12.14.27.09.34-.45.73-.93,1.44-1.53,2.37-2.56-1.15-6,0-8.45-3.4l2.9-.82-.76,1.45h4a2.35,2.35,0,0,0-1.52-1.2A13.09,13.09,0,0,0,190.89,8.38Z"/><path d="M128.55,27l-2.43,3c3.12.88,4.6-.64,6.06-2.75l-2.64-1.64,4.37-.2.81,3.29-2.82,2.64c-1.74-.18-3.81,1.72-6.14-.11-.51-2.34.6-3.6,2.88-4.12Z"/><path d="M165.68,10.77c3.71-.56,6.7-3.14,9.74,0-1.13,3.52-3.12,4.28-8.88,3.4C166.34,13.31,166.09,12.34,165.68,10.77Zm.92,1.59c2.66,1.37,3.58,1.17,6.37-1.24C170.6,10.33,168.65,10.23,166.6,12.36Z"/><path d="M158.57,7.68,156,6.35c0,.12,0,.05,0,0l3.79.47c0,3.32-1.41,4.73-4.44,4.8-3.37.08-4.59-.9-4.86-4.08a5.56,5.56,0,0,1,1.2-.58,13.72,13.72,0,0,1,2.17,0l-2.61,1.15C153.07,11,154.37,11,158.57,7.68Z"/><path d="M244.05,48.91a13.63,13.63,0,0,1-2.68-2.16,36.1,36.1,0,0,1-2.44-4.32l1.69-1.36,4.1,6.06-.8,1.9Z"/><path d="M108.67,58.41c.2,2.06.39,4.12.65,6.8C106.7,62.56,106.57,61.54,108.67,58.41Z"/><path d="M116.55,64.71c-2.27-2.5-1.76-4.85-1.13-7.91C116.57,59.58,117.85,61.64,116.55,64.71Z"/><path d="M122.53,56.59c1.33,2.15,2.53,3.9,2.32,6.39C122.48,61.73,122,60.42,122.53,56.59Z"/><path d="M133.21,60.79c-1.88-1.37-2.21-3.34-1.38-5.78.82,1.74,1.65,3.49,2.48,5.23Z"/><path d="M160.27,51l-1.85-4.67.82-.32c1.61,1.16,1.87,2.86,1.85,4.66Z"/><path d="M195,34.11c-1.75-1.28-2.93-2.29-2.18-4.6C194.88,30.45,195.24,31.87,195,34.11Z"/><path d="M200.23,24.7l2,4.05-1,.56-2.31-3.89Z"/><path d="M138.92,53.58l1.32,4.12-1,.36-1.59-4.12Z"/><path d="M103.1,60.21c-.12,1.47-.23,2.93-.34,4.39l-.79,0v-4.4Z"/><path d="M154.14,53.47c-.51-1.23-1-2.46-1.73-4.21C155,50.53,155,50.52,154.14,53.47Z"/><path d="M167.8,47.38l-1.41-3.32c2,.33,3.07,1.15,2.45,2.94Z"/><path d="M146,51.82l1.64,4-1,.41-1.71-3.92Z"/><path d="M187.16,37.13l-1.59-2.81,1.06-.59c.5,1,1,1.91,1.51,2.86Z"/><path d="M181.21,41.2l-2-2.81,1-.71,1.88,2.79Z"/><path d="M173.85,44.08l-1.75-2.92C173.88,42,173.88,42,173.85,44.08Z"/><path d="M187,24.76,189,26.34l-.49.74-2.24-1.45Z"/><path d="M95.83,61.86,96,64.19l-.82.06-.13-2.32Z"/><path d="M132.7,36.82l-1.79-1.47.64-.79L133.36,36Z"/><path d="M175.7,17.17l-.46,1.7-2.19-1.16.18-.59,2.58.17Z"/><path d="M196.73,17.15l2.63,1.3-.6,1.1L196.26,18Z"/><path d="M151.18,37c.48.44.95.89,1.42,1.34l-.49.64-1.63-1.15Z"/><path d="M106.79,55.49,108,52.9l.69,2.34Z"/><path d="M129,51.77l-.5-1.85.77-.22.59,1.82Z"/><path d="M97.13,56.57,97.67,54l.81.16-.59,2.49Z"/><path d="M103.13,53.94l-.41,2.18L101.9,56l.47-2.17Z"/><path d="M173.47,28.65,175,30.3l-.51.59-1.78-1.45Z"/><path d="M209.37,10.55l1.85,1.33-.6.79c-.6-.47-1.19-.95-1.78-1.43Z"/><path d="M183.24,30.81,182,29.29l.54-.57L184,30.1Z"/><path d="M128.83,39l-1.74-1.94.59-.63,2,1.73Z"/><path d="M108,34.33l2.46,1.57-.21.56a3.61,3.61,0,0,1-1.35-.23C108.61,36.05,108.54,35.53,108,34.33Z"/><path d="M114.69,54.56V52.94l.59-.09.31,1.65Z"/><path d="M122.05,51.23l.32,1.92-.83.14-.23-1.94Z"/><path d="M171.65,37.61l-1-1.69.82-.69,1.39,1.26Z"/><path d="M153.38,13.35,155,14.54l-1.05,1.13-1.5-1.32Z"/><path d="M101.47,47.44l-.83,1.9-.44-.16.6-2.16Z"/><path d="M108.68,49.28l.42-1.46.55.08v1.51Z"/><path d="M160,40.2l.19,1.56-.77.08-.24-1.53Z"/><path d="M176.46,32.25l1.45.87-.27.58-1.59-.63Z"/><path d="M111.56,32.31l1.34,1.62-.45.45L111,33.26Z"/><path d="M162.26,23.14l-.93-.77.18-.38,1.21.4Z"/><path d="M181,15.72l-1.56-.44.2-.68,1.55.44Z"/><path d="M151.62,43.57l1.28.82-.36.56-1.27-.85Z"/><path d="M199.87,9.14l-1.23-.84.26-.48,1.51.67Z"/><path d="M157.38,37.51l-.88-1.57.6-.33.83,1.61Z"/><path d="M136.59,33.25l1.09.86-.27.47L136.05,34Z"/><path d="M159.91,23.65l1.26,1.06-.42.51-1.25-1.09Z"/><path d="M119.61,19.54h.86l-1.62,2.38V20.3Z"/><path d="M175.81,17.29l1.86-.52.1.83-2.07-.43Z"/><path d="M129.64,16.92l.25-1.08.85.36-.61.93Z"/><path d="M157.71,14.89l-1.39-.63.23-.53,1.4.59Z"/><path d="M137,49.46l-.33-1.66.7-.13.25,1.68Z"/><path d="M165.63,39.18l-.88-.76.32-.49,1.09.57Z"/><path d="M104.55,48.15l-.6,1a3.06,3.06,0,0,1-.35-.85c0-.12.32-.28.49-.41Z"/><path d="M134.32,14.93l-.84.23-.15-.64.88-.16Z"/><ellipse cx="144.73" cy="46.6" rx="0.22" ry="0.75"/><path d="M197.58,38.41c-.18-.24-.36-.48-.09-.13v.2Z"/><path d="M149.67,60.83l-.09-.1c-.07-.49,0-.16,0,.17Z"/><path d="M183.69,44.82l-.21.14.12-.09Z"/><path d="M156.26,58l-.09.08Z"/><polygon points="126.59 66.7 126.31 66.74 126.51 66.79 126.59 66.7"/><path d="M128.64,27.12l.17-.29-.26.2Z"/><path d="M222.56,27.27l0-.36-.13.27Z"/><path d="M163.17,54.84c-.12-.08-.24-.16-.14-.1-.05-.1,0,0,.06.17Z"/><path d="M159.86,152.63c-2.86-1.83-2.85-4.57-3.05-7.21C158.05,147.59,160.44,149.24,159.86,152.63Z"/><path d="M103.19,161.46l-.93-7,.82-.15c1.35,1.9,1.65,4.1,1.67,6.63l-1.68.44Z"/><path d="M163.9,161.33c-2.12-1.09-2.31-3.25-3-5.12l.92-.56,3.17,5Z"/><path d="M155.09,153.86l2.26,5.71-1.13.47-2.5-5.61Z"/><path d="M169.09,153.93c2.33,1.19,3.25,3.24,3.92,6.4a9.34,9.34,0,0,1-3.83-6.48Z"/><path d="M123.3,156.68l-.48-4.64c2,1.67,2,1.67,1.38,4.48Z"/><path d="M128.09,141.49c-.92-1.12-3.14-1.59-2-4C128.28,138,128.66,139.48,128.09,141.49Z"/><path d="M130.65,153.56c.25,1.5.49,3,.74,4.51l-.94.15a5.21,5.21,0,0,1-1-4.51Z"/><path d="M133.07,137.55l1.62,3.63-1,.5-2-3.52Z"/><path d="M165.67,149.17l-2.73-4.41.83-.53,2.75,4.3Z"/><path d="M121.37,137.14l1.92,3.37-1,.62-2.24-3.06Z"/><path d="M146.44,155.92c.34,1.18.67,2.35,1,3.52l-.94.32c-.44-1.12-.88-2.24-1.33-3.37Z"/><path d="M108.1,147.73v3.87C106.39,149.84,106.39,149.84,108.1,147.73Z"/><path d="M114.89,149.89l.39,3.5-1,.2-.86-3.4Z"/><path d="M102.41,146.59l.26,3.25-1,.07-.26-3.25Z"/><path d="M140.76,141.05l1.39,2.3-1,.54-1.28-2.35Z"/><path d="M150.42,146.75l-1.69-2.37.76-.58,1.81,2.27Z"/><path d="M139.61,154.59l.19,2.54-.91.1-.35-2.52Z"/><path d="M177.54,150.24c.26,1,.53,1.91.8,2.87l-.9.3-1-2.83Z"/><path d="M109.93,137.47l2.1.13C110.88,139.33,110.88,139.33,109.93,137.47Z"/><path d="M144.61,153.05l-.52-1.71.65-.25.79,1.53Z"/><path d="M152.51,149.37l.66,1.29-.57.28-.65-1.29Z"/><path d="M107.49,138.88h-1.24v-.55h1.24Z"/><path d="M114.77,137.9l1.31.38-.17.61-1.32-.33Z"/><path d="M169.18,153.85l-.31-.18.22.26Z"/><path d="M166.09,164.41l-.1-.13v.21Z"/><path d="M108.45,108.49l-3.79,1.81-.32-.6,3.7-2.34Z"/><path d="M109.94,113.37c1.6-2.15,1.6-2.15,3.61-1.73l-3.68,1.66Z"/><path d="M114.46,116.38l1.35-1.6.52.61-2,.9Z"/><path d="M109.87,113.3l-.75.76.07.06.75-.75Z"/><polygon points="121.84 115.35 121.78 115.64 121.79 115.45 121.84 115.35"/><path d="M114.38,116.29c-.08.17-.16.34-.07.16-.15.06,0,0,.15-.07Z"/><path d="M102.86,104.78l.09.4s0-.15,0-.31Z"/><path d="M184.51,117.85l-5.73-2.75C183.26,114.33,183.68,114.53,184.51,117.85Z"/><path d="M197.84,120.78l-2.75.63-2.41-3.29C195.16,117.46,196.3,119,197.84,120.78Z"/><path d="M248,114.77l-1.6-.56.23-.6,1.56.66Z"/><path d="M171.27,134.91l.1.09Z"/><path d="M90.28,131.45l.08.09Z"/><path d="M130,99.17v1.17l-.4.07-.28-1.18Z"/><path d="M118.89,99.25l.63.47-.55.6-.39-.71Z"/><path d="M109.91,95.28c.55,1.26,1.42,2.6-.81,3.12Z"/><path d="M251.17,95.89l-.28.07h.18Z"/><path d="M221.84,91.85l-.09-1.63.63.17-.63,1.36Z"/><path d="M227.44,92.28l-.21.07a1.27,1.27,0,0,1-.06-.28s.14,0,.21-.06Z"/><path d="M170,96.14l.76-.75.27.49-1.11.17Z"/><path class="cls-1" d="M225,19.18c1.8-.48,3.58-.88,5.19,1.09C227.79,21.43,226.43,20.21,225,19.18Z"/><polygon class="cls-1" points="223.3 30.84 223.06 30.74 223.22 30.82 223.3 30.84"/><path class="cls-1" d="M140.12,16.19c2-2.15,2-2.15,5.37-1.2l-5,2Z"/><path class="cls-1" d="M150,24.67,155,22.9l.42,1.17-5,1.93Z"/><path class="cls-1" d="M190.89,8.38a13.09,13.09,0,0,1,1.78.18,2.35,2.35,0,0,1,1.52,1.2h-4L191,8.31Z"/><path class="cls-1" d="M166.6,12.36c2.05-2.13,4-2,6.37-1.24C170.18,13.53,169.26,13.73,166.6,12.36Z"/></g></g></svg>